<svg width="41" height="40" viewBox="0 0 41 40" fill="none" xmlns="http://www.w3.org/2000/svg">
<path d="M25.5 23.75C26.7361 23.75 27.9445 23.3834 28.9723 22.6967C30.0001 22.0099 30.8012 21.0338 31.2742 19.8918C31.7473 18.7497 31.8711 17.4931 31.6299 16.2807C31.3888 15.0683 30.7935 13.9547 29.9194 13.0806C29.0453 12.2065 27.9317 11.6113 26.7193 11.3701C25.5069 11.1289 24.2503 11.2527 23.1082 11.7258C21.9662 12.1988 20.9901 12.9999 20.3033 14.0277C19.6166 15.0555 19.25 16.2639 19.25 17.5C19.25 19.1576 19.9085 20.7473 21.0806 21.9194C22.2527 23.0915 23.8424 23.75 25.5 23.75ZM25.5 13.75C26.2417 13.75 26.9667 13.9699 27.5834 14.382C28.2001 14.794 28.6807 15.3797 28.9645 16.0649C29.2484 16.7502 29.3226 17.5042 29.1779 18.2316C29.0333 18.959 28.6761 19.6272 28.1517 20.1517C27.6272 20.6761 26.959 21.0333 26.2316 21.1779C25.5042 21.3226 24.7502 21.2484 24.0649 20.9646C23.3797 20.6807 22.794 20.2001 22.382 19.5834C21.9699 18.9667 21.75 18.2417 21.75 17.5C21.75 16.5054 22.1451 15.5516 22.8483 14.8484C23.5516 14.1451 24.5054 13.75 25.5 13.75Z" fill="url(#paint0_linear_102_2941)"/>
<path d="M11.6758 12.5C12.6647 12.5 13.6314 12.2068 14.4536 11.6574C15.2759 11.1079 15.9167 10.327 16.2952 9.41342C16.6736 8.49979 16.7726 7.49446 16.5797 6.52455C16.3868 5.55465 15.9106 4.66373 15.2113 3.96447C14.5121 3.26521 13.6211 2.789 12.6512 2.59608C11.6813 2.40315 10.676 2.50217 9.76236 2.8806C8.84873 3.25904 8.06784 3.89991 7.51843 4.72215C6.96903 5.5444 6.67578 6.5111 6.67578 7.5C6.67578 8.82609 7.20257 10.0979 8.14025 11.0355C9.07793 11.9732 10.3497 12.5 11.6758 12.5ZM11.6758 5C12.1702 5 12.6536 5.14662 13.0647 5.42133C13.4758 5.69603 13.7963 6.08648 13.9855 6.54329C14.1747 7.00011 14.2242 7.50278 14.1277 7.98773C14.0313 8.47268 13.7932 8.91814 13.4435 9.26777C13.0939 9.6174 12.6485 9.8555 12.1635 9.95197C11.6786 10.0484 11.1759 9.99892 10.7191 9.8097C10.2623 9.62048 9.87181 9.30005 9.59711 8.88893C9.3224 8.4778 9.17578 7.99446 9.17578 7.5C9.17578 6.83696 9.43917 6.20108 9.90801 5.73223C10.3769 5.26339 11.0127 5 11.6758 5Z" fill="url(#paint1_linear_102_2941)"/>
<path d="M31.75 25H19.25C17.5924 25 16.0027 25.6585 14.8306 26.8306C13.6585 28.0027 13 29.5924 13 31.25V37.5H15.5V31.25C15.5 30.2554 15.8951 29.3016 16.5983 28.5983C17.3016 27.8951 18.2554 27.5 19.25 27.5H31.75C32.7446 27.5 33.6984 27.8951 34.4017 28.5983C35.1049 29.3016 35.5 30.2554 35.5 31.25V37.5H38V31.25C38 29.5924 37.3415 28.0027 36.1694 26.8306C34.9973 25.6585 33.4076 25 31.75 25Z" fill="url(#paint2_linear_102_2941)"/>
<path d="M16.75 13.75H8C6.67392 13.75 5.40215 14.2768 4.46447 15.2145C3.52678 16.1521 3 17.4239 3 18.75V23.75H5.5V18.75C5.5 18.087 5.76339 17.4511 6.23223 16.9822C6.70107 16.5134 7.33696 16.25 8 16.25H16.75V13.75Z" fill="url(#paint3_linear_102_2941)"/>
<defs>
<linearGradient id="paint0_linear_102_2941" x1="21.9286" y1="13.3333" x2="27.1001" y2="20.5143" gradientUnits="userSpaceOnUse">
<stop stop-color="#1BABC3"/>
<stop offset="1" stop-color="#88E7F7"/>
</linearGradient>
<linearGradient id="paint1_linear_102_2941" x1="8.81864" y1="4.16666" x2="12.9558" y2="9.91147" gradientUnits="userSpaceOnUse">
<stop stop-color="#1BABC3"/>
<stop offset="1" stop-color="#88E7F7"/>
</linearGradient>
<linearGradient id="paint2_linear_102_2941" x1="18.3571" y1="27.0833" x2="21.8332" y2="36.737" gradientUnits="userSpaceOnUse">
<stop stop-color="#1BABC3"/>
<stop offset="1" stop-color="#88E7F7"/>
</linearGradient>
<linearGradient id="paint3_linear_102_2941" x1="5.94643" y1="15.4167" x2="9.53216" y2="22.2629" gradientUnits="userSpaceOnUse">
<stop stop-color="#1BABC3"/>
<stop offset="1" stop-color="#88E7F7"/>
</linearGradient>
</defs>
</svg>
