<svg width="24" height="24" viewBox="0 0 24 24" fill="none" xmlns="http://www.w3.org/2000/svg">
<path d="M20 11C20.4142 11 20.75 11.3358 20.75 11.75C20.75 12.1642 20.4142 12.5 20 12.5H10.75V17.75C10.75 18.0534 10.5673 18.3268 10.287 18.4429C10.0068 18.559 9.68417 18.4949 9.46967 18.2804L3.46967 12.2804C3.32902 12.1397 3.25 11.9489 3.25 11.75C3.25 11.5511 3.32902 11.3603 3.46967 11.2197L9.46967 5.21969C9.68417 5.00519 10.0068 4.94103 10.287 5.05711C10.5673 5.1732 10.75 5.44668 10.75 5.75002V11H20Z" fill="url(#paint0_linear_102_2300)"/>
<defs>
<linearGradient id="paint0_linear_102_2300" x1="7" y1="7.25" x2="12" y2="16.25" gradientUnits="userSpaceOnUse">
<stop stop-color="#1BABC3"/>
<stop offset="1" stop-color="#88E7F7"/>
</linearGradient>
</defs>
</svg>
