<svg width="35" height="34" viewBox="0 0 35 34" fill="none" xmlns="http://www.w3.org/2000/svg">
<path d="M27.0616 8.49982C26.3093 8.49868 25.5629 8.63181 24.8574 8.89295C24.5711 6.75374 23.5278 4.78792 21.9167 3.35182C20.3055 1.91573 18.2331 1.10443 16.0752 1.06499C13.9173 1.02554 11.8166 1.76056 10.1541 3.13681C8.4915 4.51306 7.37705 6.43945 7.01274 8.56676C5.55801 8.78057 4.22202 9.49099 3.23137 10.5775C2.24072 11.6641 1.65641 13.0598 1.57754 14.5281C1.49866 15.9963 1.93009 17.4466 2.79864 18.633C3.66719 19.8195 4.91938 20.6689 6.34284 21.0373V23.3748C6.34284 23.6566 6.45478 23.9269 6.65404 24.1261C6.85329 24.3254 7.12354 24.4373 7.40534 24.4373H13.2491V26.5623H5.81159V28.6873H13.2491V30.8123H5.81159V32.9373H14.3116C14.5934 32.9373 14.8636 32.8254 15.0629 32.6261C15.2621 32.4269 15.3741 32.1566 15.3741 31.8748V24.4373H19.6241V31.8748C19.6241 32.1566 19.736 32.4269 19.9353 32.6261C20.1345 32.8254 20.4048 32.9373 20.6866 32.9373H29.1866V30.8123H21.7491V28.6873H29.1866V26.5623H21.7491V24.4373H27.5928C27.8746 24.4373 28.1449 24.3254 28.3441 24.1261C28.5434 23.9269 28.6553 23.6566 28.6553 23.3748V21.0373C30.1553 20.6483 31.462 19.726 32.3309 18.443C33.1998 17.1601 33.5714 15.6044 33.376 14.0672C33.1806 12.53 32.4316 11.1168 31.2693 10.092C30.1071 9.06721 28.6111 8.50116 27.0616 8.49982ZM26.5303 22.3123H8.46784V15.9373H26.5303V22.3123ZM28.6553 18.8119V14.8748C28.6553 14.593 28.5434 14.3228 28.3441 14.1235C28.1449 13.9243 27.8746 13.8123 27.5928 13.8123H7.40534C7.12354 13.8123 6.85329 13.9243 6.65404 14.1235C6.45478 14.3228 6.34284 14.593 6.34284 14.8748V18.8119C5.4324 18.4419 4.67834 17.7678 4.20901 16.9043C3.73968 16.0409 3.5841 15.0414 3.76875 14.0762C3.9534 13.1109 4.46686 12.2395 5.22173 11.6102C5.9766 10.9809 6.92623 10.6327 7.90896 10.6248H7.96209C8.23214 10.6254 8.49228 10.5231 8.68964 10.3388C8.887 10.1545 9.00676 9.90191 9.02459 9.63245C9.14609 7.84745 9.95603 6.1794 11.2836 4.98003C12.6112 3.78066 14.3527 3.14372 16.1408 3.20353C17.9289 3.26334 19.624 4.01521 20.8685 5.30061C22.1129 6.586 22.8096 8.30445 22.8116 10.0936C22.8116 10.2322 22.801 10.3682 22.7914 10.5037L22.7861 10.5791C22.7718 10.783 22.8166 10.9867 22.9152 11.1657C23.0137 11.3447 23.1618 11.4916 23.3417 11.5886C23.5215 11.6856 23.7256 11.7286 23.9293 11.7126C24.133 11.6966 24.3278 11.6221 24.4903 11.4982C25.2272 10.9307 26.1315 10.6235 27.0616 10.6248C28.0467 10.6264 29.0006 10.9701 29.7603 11.5972C30.52 12.2243 31.0383 13.0958 31.2265 14.0627C31.4147 15.0297 31.2612 16.0319 30.7922 16.8982C30.3232 17.7645 29.5679 18.4409 28.6553 18.8119Z" fill="#FFE4E4"/>
<path d="M3.6875 30.8125H1.5625V32.9375H3.6875V30.8125Z" fill="#FFE4E4"/>
<path d="M3.6875 26.5625H1.5625V28.6875H3.6875V26.5625Z" fill="#FFE4E4"/>
<path d="M12.7188 18.0625H10.5938V20.1875H12.7188V18.0625Z" fill="#FFE4E4"/>
<path d="M24.4062 18.0625H14.8438V20.1875H24.4062V18.0625Z" fill="#FFE4E4"/>
<path d="M33.4375 30.8125H31.3125V32.9375H33.4375V30.8125Z" fill="#FFE4E4"/>
<path d="M33.4375 26.5625H31.3125V28.6875H33.4375V26.5625Z" fill="#FFE4E4"/>
</svg>
