<svg width="25" height="25" viewBox="0 0 25 25" fill="none" xmlns="http://www.w3.org/2000/svg">
<rect x="3.4082" y="6.5" width="18" height="15" rx="2" stroke="white" stroke-opacity="0.56" stroke-width="1.5"/>
<path d="M3.4082 10.5C3.4082 8.61438 3.4082 7.67157 3.99399 7.08579C4.57978 6.5 5.52259 6.5 7.4082 6.5H17.4082C19.2938 6.5 20.2366 6.5 20.8224 7.08579C21.4082 7.67157 21.4082 8.61438 21.4082 10.5H3.4082Z" fill="white" fill-opacity="0.56"/>
<path d="M7.4082 3.5L7.4082 6.5" stroke="white" stroke-opacity="0.56" stroke-width="2" stroke-linecap="round"/>
<path d="M17.4082 3.5L17.4082 6.5" stroke="white" stroke-opacity="0.56" stroke-width="2" stroke-linecap="round"/>
<rect x="7.4082" y="12.5" width="4" height="2" rx="0.5" fill="white" fill-opacity="0.56"/>
<rect x="7.4082" y="16.5" width="4" height="2" rx="0.5" fill="white" fill-opacity="0.56"/>
<rect x="13.4082" y="12.5" width="4" height="2" rx="0.5" fill="white" fill-opacity="0.56"/>
<rect x="13.4082" y="16.5" width="4" height="2" rx="0.5" fill="white" fill-opacity="0.56"/>
</svg>
