<svg width="60" height="60" viewBox="0 0 60 60" fill="none" xmlns="http://www.w3.org/2000/svg">
<path d="M20.666 22.808H20.556C20.1524 22.808 19.7944 23.0666 19.6676 23.4494L17.9479 28.6392L16.2204 23.4483C16.093 23.0659 15.7353 22.808 15.3323 22.808H15.1739C14.7703 22.808 14.4123 23.0666 14.2855 23.4494L12.5658 28.6392L10.8383 23.4483C10.7109 23.0659 10.3532 22.808 9.95018 22.808H9.84017C9.53838 22.808 9.25515 22.9534 9.07949 23.1986C8.90382 23.4438 8.85703 23.7589 8.95379 24.0445L11.6078 31.871C11.7363 32.2507 12.0929 32.5061 12.4939 32.5061H12.5552C12.5594 32.5061 12.5637 32.5054 12.5679 32.5052C12.572 32.5054 12.5764 32.5061 12.5805 32.5061H12.6301C13.0316 32.5061 13.3889 32.2498 13.517 31.8688L15.257 26.7028L16.9887 31.8675C17.1167 32.2485 17.4738 32.5061 17.8762 32.5061H17.9373C17.9415 32.5061 17.9458 32.5054 17.95 32.5052C17.9541 32.5054 17.9585 32.5061 17.9626 32.5061H18.0122C18.4132 32.5061 18.7698 32.2507 18.8985 31.871L21.5522 24.0445C21.6493 23.7589 21.6026 23.4438 21.4268 23.1986C21.251 22.9534 20.9676 22.808 20.666 22.808Z" fill="url(#paint0_linear_102_2269)"/>
<path d="M33.6486 22.808H33.5384C33.1348 22.808 32.777 23.0666 32.65 23.4494L30.9305 28.6392L29.2028 23.4483C29.0754 23.0659 28.7177 22.808 28.3147 22.808H28.1563C27.7527 22.808 27.3948 23.0666 27.2679 23.4494L25.5483 28.6392L23.8207 23.4483C23.6933 23.0659 23.3356 22.808 22.9326 22.808H22.8226C22.5208 22.808 22.2376 22.9534 22.0619 23.1986C21.8862 23.4438 21.8395 23.7589 21.9362 24.0445L24.5902 31.871C24.7188 32.2507 25.0753 32.5061 25.4763 32.5061H25.5376C25.5418 32.5061 25.5461 32.5054 25.5503 32.5052C25.5545 32.5054 25.5588 32.5061 25.563 32.5061H25.6125C26.0141 32.5061 26.3713 32.2498 26.4994 31.8688L28.2394 26.7028L29.9711 31.8675C30.0991 32.2485 30.4564 32.5061 30.8588 32.5061H30.92C30.924 32.5061 30.9285 32.5054 30.9327 32.5052C30.9367 32.5054 30.9412 32.5061 30.9453 32.5061H30.9949C31.3959 32.5061 31.7525 32.2507 31.8813 31.871L34.5349 24.0445C34.632 23.7589 34.5855 23.4438 34.4095 23.1986C34.2336 22.9534 33.9502 22.808 33.6486 22.808Z" fill="url(#paint1_linear_102_2269)"/>
<path d="M46.629 22.808H46.5187C46.1151 22.808 45.7575 23.0666 45.6303 23.4494L43.911 28.6392L42.1834 23.4483C42.056 23.0659 41.6983 22.808 41.2953 22.808H41.1366C40.733 22.808 40.3751 23.0666 40.2482 23.4494L38.5289 28.6392L36.8012 23.4483C36.6738 23.0659 36.3162 22.808 35.9131 22.808H35.8031C35.501 22.808 35.218 22.9534 35.0424 23.1986C34.8667 23.4438 34.8199 23.7589 34.9167 24.0445L37.5708 31.871C37.6995 32.2507 38.0559 32.5061 38.4569 32.5061H38.5182C38.5224 32.5061 38.5269 32.5054 38.5309 32.5052C38.5351 32.5054 38.5395 32.5061 38.5437 32.5061H38.5932C38.9948 32.5061 39.3521 32.2498 39.4802 31.8688L41.2201 26.7028L42.9517 31.8675C43.0799 32.2485 43.4368 32.5061 43.8393 32.5061H43.9003C43.9045 32.5061 43.909 32.5054 43.9131 32.5052C43.9172 32.5054 43.9216 32.5061 43.9258 32.5061H43.9753C44.3763 32.5061 44.733 32.2507 44.8617 31.871L47.5154 24.0445C47.6125 23.7589 47.5658 23.4438 47.39 23.1986C47.2139 22.9534 46.9307 22.808 46.629 22.808Z" fill="url(#paint2_linear_102_2269)"/>
<path d="M4.07239 50.2145V15.1224H52.3975V35.2016C53.3669 34.3684 54.5877 33.9125 55.8794 33.9125C56.0782 33.9125 56.2751 33.9243 56.47 33.9455V6.38018C56.47 4.50893 54.9479 2.98669 53.0772 2.98669H3.39349C1.52194 2.98669 0 4.50893 0 6.38018V50.8934C0 52.7643 1.52194 54.2868 3.39349 54.2868H35.7687C34.9871 53.0605 34.4188 51.6862 34.1213 50.2145H4.07239ZM48.6712 8.68513C48.6712 7.99298 49.2321 7.43201 49.9242 7.43201H51.1773C51.8693 7.43201 52.4302 7.99298 52.4302 8.68513V10.1053C52.4302 10.7971 51.8692 11.3581 51.1773 11.3581H49.9242C49.2318 11.3581 48.6712 10.7971 48.6712 10.1053V8.68513ZM42.8449 8.68513C42.8449 7.99298 43.4059 7.43201 44.0978 7.43201H45.3509C46.0432 7.43201 46.6037 7.99298 46.6037 8.68513V10.1053C46.6037 10.7971 46.0428 11.3581 45.3509 11.3581H44.0978C43.4059 11.3581 42.8449 10.7971 42.8449 10.1053V8.68513ZM37.0182 8.68513C37.0182 7.99298 37.5792 7.43201 38.2713 7.43201H39.5242C40.216 7.43201 40.777 7.99298 40.777 8.68513V10.1053C40.777 10.7971 40.216 11.3581 39.5242 11.3581H38.2713C37.5792 11.3581 37.0182 10.7971 37.0182 10.1053V8.68513Z" fill="url(#paint3_linear_102_2269)"/>
<path d="M60.0002 41.1135C60.0002 40.4531 59.7432 39.8325 59.2761 39.3653L57.4267 37.5158C56.9599 37.0491 56.3392 36.7921 55.6792 36.7921C55.0191 36.7921 54.3982 37.0491 53.9312 37.5161L51.1084 40.3384C49.601 39.2576 47.7531 38.6209 45.7567 38.6209C40.6779 38.6209 36.5605 42.7383 36.5605 47.8171C36.5605 52.8956 40.6779 57.0131 45.7567 57.0131C50.8354 57.0131 54.9527 52.8953 54.9527 47.8171C54.9527 47.611 54.9453 47.4068 54.9317 47.2044L59.2752 42.8609C59.7429 42.3944 60.0002 41.7735 60.0002 41.1135ZM57.2689 41.6629L48.4242 50.5077C48.2378 50.6942 47.9849 50.7987 47.7214 50.7987H47.7211C47.4571 50.7987 47.2045 50.6938 47.018 50.5076L42.9192 46.4025C42.532 46.0145 42.5321 45.3854 42.92 44.9974L43.7089 44.2085C44.0967 43.8207 44.7255 43.8204 45.1135 44.2076L47.7203 46.8076L55.0666 39.4613C55.2531 39.2749 55.5059 39.1703 55.7694 39.1703C56.0329 39.1703 56.2858 39.2752 56.4722 39.4613L57.2683 40.2576C57.6571 40.6458 57.6571 41.2749 57.2689 41.6629Z" fill="url(#paint4_linear_102_2269)"/>
<defs>
<linearGradient id="paint0_linear_102_2269" x1="11.6252" y1="24.4243" x2="15.1981" y2="30.92" gradientUnits="userSpaceOnUse">
<stop stop-color="#1BABC3"/>
<stop offset="1" stop-color="#88E7F7"/>
</linearGradient>
<linearGradient id="paint1_linear_102_2269" x1="24.6077" y1="24.4243" x2="28.1805" y2="30.9201" gradientUnits="userSpaceOnUse">
<stop stop-color="#1BABC3"/>
<stop offset="1" stop-color="#88E7F7"/>
</linearGradient>
<linearGradient id="paint2_linear_102_2269" x1="37.5882" y1="24.4243" x2="41.161" y2="30.9201" gradientUnits="userSpaceOnUse">
<stop stop-color="#1BABC3"/>
<stop offset="1" stop-color="#88E7F7"/>
</linearGradient>
<linearGradient id="paint3_linear_102_2269" x1="12.1007" y1="11.5367" x2="32.605" y2="42.8777" gradientUnits="userSpaceOnUse">
<stop stop-color="#1BABC3"/>
<stop offset="1" stop-color="#88E7F7"/>
</linearGradient>
<linearGradient id="paint4_linear_102_2269" x1="41.5833" y1="40.1623" x2="49.4911" y2="52.8907" gradientUnits="userSpaceOnUse">
<stop stop-color="#1BABC3"/>
<stop offset="1" stop-color="#88E7F7"/>
</linearGradient>
</defs>
</svg>
