<svg width="41" height="40" viewBox="0 0 41 40" fill="none" xmlns="http://www.w3.org/2000/svg">
<path d="M5.5 21.8518C5.5 33.7037 14.3148 36.6667 18.7222 36.6667C20.979 36.6667 24.2468 36.072 27.1667 34.3495M31.7012 30C33.0035 27.9228 33.8333 25.2533 33.8333 21.8518C33.8333 14.3071 29.1088 8.91878 24.8372 5.82945C22.9063 4.43308 20.5 5.96667 20.5 8.34952V8.8889C20.5 11.292 19.4897 15.6784 16.6822 17.5028C15.2489 18.4343 13.7009 17.0402 13.5267 15.3397L13.3836 13.9433C13.2173 12.32 11.564 11.3345 10.2666 12.3242C9.14657 13.1786 8.00232 14.3414 7.11573 15.8333" stroke="url(#paint0_linear_102_2120)" stroke-width="3.75" stroke-linecap="round"/>
<path d="M13.834 30.7408C13.834 35.4815 17.9822 36.6667 20.0562 36.6667C21.871 36.6667 25.5007 35.4815 25.5007 30.7408C25.5007 28.9058 24.5185 27.667 23.568 26.9522C22.9047 26.4533 21.972 26.9013 21.7438 27.6993C21.4465 28.7395 20.372 29.3933 19.8247 28.4598C19.3242 27.6063 19.3242 26.3262 19.3242 25.5557C19.3242 24.4947 18.2572 23.8078 17.3988 24.4315C15.6781 25.6818 13.834 27.8025 13.834 30.7408Z" stroke="url(#paint1_linear_102_2120)" stroke-width="3.75"/>
<defs>
<linearGradient id="paint0_linear_102_2120" x1="11.5714" y1="10.526" x2="24.9112" y2="27.2569" gradientUnits="userSpaceOnUse">
<stop stop-color="#1BABC3"/>
<stop offset="1" stop-color="#88E7F7"/>
</linearGradient>
<linearGradient id="paint1_linear_102_2120" x1="16.334" y1="26.2731" x2="21.5937" y2="33.1048" gradientUnits="userSpaceOnUse">
<stop stop-color="#1BABC3"/>
<stop offset="1" stop-color="#88E7F7"/>
</linearGradient>
</defs>
</svg>
