<svg width="25" height="25" viewBox="0 0 25 25" fill="none" xmlns="http://www.w3.org/2000/svg">
<g opacity="0.62">
<path opacity="0.5" d="M18.4082 10.5645H13.4082" stroke="white" stroke-width="2" stroke-linecap="round"/>
<path opacity="0.5" d="M10.4082 3.79033H16.9082C17.3726 3.79033 17.6048 3.79033 17.7998 3.81517C19.146 3.98668 20.2053 5.01183 20.3825 6.31461C20.4082 6.50327 20.4082 6.72799 20.4082 7.17743" stroke="white" stroke-width="2"/>
<path d="M2.4082 7.61267C2.4082 6.75861 2.4082 6.33157 2.47755 5.97587C2.78284 4.40998 4.04851 3.18514 5.66659 2.8897C6.03415 2.82259 6.47542 2.82259 7.35795 2.82259C7.74462 2.82259 7.93796 2.82259 8.12377 2.83941C8.92485 2.9119 9.68472 3.2165 10.3041 3.7134C10.4478 3.82866 10.5845 3.96097 10.8579 4.22557L11.4082 4.75807C12.224 5.54753 12.6319 5.94227 13.1203 6.20526C13.3886 6.34972 13.6733 6.46381 13.9686 6.54528C14.5061 6.69355 15.0829 6.69355 16.2366 6.69355H16.6103C19.2427 6.69355 20.5588 6.69355 21.4144 7.43819C21.4931 7.50669 21.568 7.57917 21.6387 7.65533C22.4082 8.48325 22.4082 9.75698 22.4082 12.3044V14.4355C22.4082 18.085 22.4082 19.9099 21.2366 21.0436C20.0651 22.1774 18.1794 22.1774 14.4082 22.1774H10.4082C6.63696 22.1774 4.75135 22.1774 3.57977 21.0436C2.4082 19.9099 2.4082 18.085 2.4082 14.4355V7.61267Z" stroke="white" stroke-width="2"/>
</g>
</svg>
