<svg width="45" height="45" viewBox="0 0 45 45" fill="none" xmlns="http://www.w3.org/2000/svg">
<g clip-path="url(#clip0_156_467)">
<path d="M26.1171 40.311C25.7766 38.9982 24.7507 37.9727 23.4376 37.6328V32.8113H21.5626V37.6328C20.2495 37.9727 19.2237 38.9983 18.8832 40.311H0.000976562V42.1859H18.8831C19.3014 43.7967 20.7545 45 22.5001 45C24.2457 45 25.6987 43.7966 26.1171 42.1859H44.9992V40.311H26.1171Z" fill="white"/>
<path d="M22.4996 17.993C17.6014 17.993 13.5043 16.8407 11.25 15.0516V19.1722C11.25 21.2321 15.87 23.5272 22.4996 23.5272C29.1292 23.5272 33.7492 21.2321 33.7492 19.1722V15.0516C31.4948 16.8407 27.3978 17.993 22.4996 17.993Z" fill="white"/>
<path d="M22.4996 10.5839C17.6014 10.5839 13.5043 9.43161 11.25 7.6424V11.7631C11.25 13.823 15.87 16.1181 22.4996 16.1181C29.1292 16.1181 33.7492 13.823 33.7492 11.7631V7.6424C31.4948 9.43161 27.3978 10.5839 22.4996 10.5839Z" fill="white"/>
<path d="M22.4996 25.4021C17.6014 25.4021 13.5043 24.2498 11.25 22.4606V26.5814C11.25 28.6412 15.87 30.9363 22.4996 30.9363C29.1292 30.9363 33.7492 28.6412 33.7492 26.5814V22.4606C31.4948 24.2498 27.3978 25.4021 22.4996 25.4021Z" fill="white"/>
<path d="M22.4996 0C15.87 0 11.25 2.29412 11.25 4.35401C11.25 6.41391 15.87 8.70898 22.4996 8.70898C29.1292 8.70898 33.7492 6.41391 33.7492 4.35401C33.7491 2.29412 29.1291 0 22.4996 0Z" fill="white"/>
</g>
<defs>
<clipPath id="clip0_156_467">
<rect width="45" height="45" fill="white"/>
</clipPath>
</defs>
</svg>
