<svg width="74" height="29" viewBox="0 0 74 29" fill="none" xmlns="http://www.w3.org/2000/svg">
<g clip-path="url(#clip0_102_2304)">
<path d="M26.3224 19.8899C21.8927 15.4601 21.8928 8.2522 26.3224 3.82237C30.7522 -0.607458 37.9601 -0.607458 42.3898 3.82237C46.1479 7.58048 46.7171 13.1697 44.0988 17.5344C44.0988 17.5344 43.9108 17.8499 44.1648 18.1037C45.6138 19.5527 49.9613 23.9003 49.9613 23.9003C51.1151 25.0539 51.3897 26.6672 50.3666 27.6905L50.1904 27.8665C49.1673 28.8898 47.554 28.6152 46.4003 27.4615C46.4003 27.4615 42.062 23.1231 40.6159 21.6771C40.3497 21.4109 40.0343 21.599 40.0343 21.599C35.6698 24.2171 30.0805 23.6481 26.3224 19.8899ZM40.2923 17.7923C43.5655 14.5191 43.5654 9.19335 40.2922 5.92016C37.019 2.64706 31.6932 2.64697 28.4201 5.92016C25.1469 9.19326 25.1469 14.5191 28.4201 17.7923C31.6933 21.0653 37.019 21.0653 40.2923 17.7923Z" fill="white"/>
<path d="M39.5678 11.1819C39.7202 11.1819 39.875 11.1519 40.0243 11.0889C40.6206 10.8365 40.8996 10.1484 40.6472 9.55204C39.061 5.8034 34.7208 4.04423 30.9723 5.63049C30.3759 5.88287 30.097 6.57092 30.3493 7.16732C30.6018 7.76373 31.2897 8.04254 31.8863 7.79025C34.4438 6.70802 37.4053 7.90832 38.4874 10.4659C38.6767 10.9132 39.1109 11.1819 39.5678 11.1819Z" fill="white"/>
</g>
<defs>
<clipPath id="clip0_102_2304">
<rect width="28" height="28" fill="white" transform="matrix(-1 0 0 1 51 0.5)"/>
</clipPath>
</defs>
</svg>
