<svg width="490" height="306" viewBox="0 0 490 306" fill="none" xmlns="http://www.w3.org/2000/svg">
<g opacity="0.19" filter="url(#filter0_f_102_3049)">
<g opacity="0.74" clip-path="url(#clip0_102_3049)">
<path d="M-8 226.611H55.652L78.0398 211.084H110.35L127.148 239.12H219.472L238.852 225.1H293.731" stroke="white" stroke-width="1.5" stroke-miterlimit="10"/>
<path d="M293.594 228.019C295.117 228.019 296.352 226.712 296.352 225.1C296.352 223.488 295.117 222.181 293.594 222.181C292.071 222.181 290.836 223.488 290.836 225.1C290.836 226.712 292.071 228.019 293.594 228.019Z" fill="white"/>
<path d="M-8 244.022H56.0286L78.7929 228.205L107.704 228.495L125.148 256.526H219.472L238.852 242.51H323.449" stroke="white" stroke-width="1.5" stroke-miterlimit="10"/>
<path d="M323.313 245.429C324.836 245.429 326.071 244.122 326.071 242.51C326.071 240.898 324.836 239.591 323.313 239.591C321.79 239.591 320.555 240.898 320.555 242.51C320.555 244.122 321.79 245.429 323.313 245.429Z" fill="white"/>
<path d="M-8 261.691H56.0286L78.7928 245.875L107.704 246.164L125.148 274.195H216.851" stroke="white" stroke-width="1.5" stroke-miterlimit="10"/>
<path d="M216.713 277.114C218.234 277.114 219.471 275.804 219.471 274.195C219.471 272.585 218.234 271.276 216.713 271.276C215.192 271.276 213.955 272.585 213.955 274.195C213.955 275.804 215.192 277.114 216.713 277.114Z" fill="white"/>
<path d="M-8 315.584H24.7405L44.1207 301.569H131.339L144.068 288.097H187.822L199.891 300.865H243.439" stroke="white" stroke-width="1.5" stroke-miterlimit="10"/>
<path d="M243.283 304.224C245.034 304.224 246.457 302.723 246.457 300.865C246.457 299.007 245.039 297.506 243.283 297.506C241.528 297.506 240.109 299.007 240.109 300.865C240.109 302.723 241.528 304.224 243.283 304.224Z" fill="white"/>
<path d="M-8 270.893H92.9698" stroke="white" stroke-width="1.5" stroke-miterlimit="10"/>
<path d="M92.8323 273.812C94.3532 273.812 95.5905 272.503 95.5905 270.893C95.5905 269.284 94.3532 267.974 92.8323 267.974C91.3115 267.974 90.0742 269.284 90.0742 270.893C90.0742 272.503 91.3115 273.812 92.8323 273.812Z" fill="white"/>
<path d="M-8 196.231H114.668L134.938 227.869" stroke="white" stroke-width="1.5" stroke-miterlimit="10"/>
<path d="M132.576 229.391C133.432 230.726 135.149 231.073 136.405 230.167C137.662 229.262 137.995 227.445 137.139 226.115C136.283 224.779 134.567 224.433 133.31 225.338C132.048 226.244 131.72 228.061 132.576 229.391Z" fill="white"/>
<path d="M-8 184.762H125.29L152.46 229.613H198.771" stroke="white" stroke-width="1.5" stroke-miterlimit="10"/>
<path d="M198.635 232.532C200.156 232.532 201.393 231.222 201.393 229.613C201.393 228.003 200.156 226.694 198.635 226.694C197.114 226.694 195.877 228.003 195.877 229.613C195.877 231.222 197.114 232.532 198.635 232.532Z" fill="white"/>
<path d="M-8 172.791H151.419L165.996 196.231H216.851" stroke="white" stroke-width="1.5" stroke-miterlimit="10"/>
<path d="M216.713 199.15C218.234 199.15 219.471 197.84 219.471 196.231C219.471 194.621 218.234 193.312 216.713 193.312C215.192 193.312 213.955 194.621 213.955 196.231C213.955 197.84 215.192 199.15 216.713 199.15Z" fill="white"/>
<path d="M-8 60.1245H43.7931L70.7874 88.6935H114.013H163.375" stroke="white" stroke-width="1.5" stroke-miterlimit="10"/>
<path d="M163.239 91.6124C164.759 91.6124 165.997 90.303 165.997 88.6934C165.997 87.0838 164.759 85.7744 163.239 85.7744C161.718 85.7744 160.48 87.0838 160.48 88.6934C160.48 90.303 161.718 91.6124 163.239 91.6124Z" fill="white"/>
<path d="M-8 76.2305H43.7931L70.7875 104.799H114.013H146.636L164.632 123.845H239.473" stroke="white" stroke-width="1.5" stroke-miterlimit="10"/>
<path d="M239.336 126.759C240.857 126.759 242.094 125.45 242.094 123.84C242.094 122.231 240.857 120.921 239.336 120.921C237.815 120.921 236.578 122.231 236.578 123.84C236.578 125.45 237.815 126.759 239.336 126.759Z" fill="white"/>
<path d="M-8 90.5151H39.382L65.6918 118.365H106.692H135.007L158.377 143.099L221.061 145.334" stroke="white" stroke-width="1.5" stroke-miterlimit="10"/>
<path d="M220.831 148.249C222.352 148.3 223.628 147.043 223.682 145.428C223.736 143.818 222.543 142.467 221.017 142.411C219.491 142.354 218.22 143.616 218.166 145.231C218.112 146.846 219.305 148.192 220.831 148.249Z" fill="white"/>
<path d="M-8 104.437H31.2788" stroke="white" stroke-width="1.5" stroke-miterlimit="10"/>
<path d="M31.1409 107.356C32.6618 107.356 33.8991 106.047 33.8991 104.437C33.8991 102.827 32.6618 101.518 31.1409 101.518C29.6201 101.518 28.3828 102.827 28.3828 104.437C28.3828 106.047 29.6201 107.356 31.1409 107.356Z" fill="white"/>
<path d="M-8 120.052H45.9497" stroke="white" stroke-width="1.5" stroke-miterlimit="10"/>
<path d="M45.8128 122.966C47.3337 122.966 48.5709 121.657 48.5709 120.047C48.5709 118.437 47.3337 117.128 45.8128 117.128C44.2919 117.128 43.0547 118.437 43.0547 120.047C43.0547 121.657 44.2919 122.966 45.8128 122.966Z" fill="white"/>
<path d="M-8 209.33H45.9497" stroke="white" stroke-width="1.5" stroke-miterlimit="10"/>
<path d="M45.8128 212.249C47.3337 212.249 48.5709 210.94 48.5709 209.33C48.5709 207.721 47.3337 206.411 45.8128 206.411C44.2919 206.411 43.0547 207.721 43.0547 209.33C43.0547 210.94 44.2919 212.249 45.8128 212.249Z" fill="white"/>
<path d="M68.8223 160.639H185.201" stroke="white" stroke-width="1.5" stroke-miterlimit="10"/>
<path d="M185.065 163.558C186.586 163.558 187.823 162.248 187.823 160.639C187.823 159.029 186.586 157.72 185.065 157.72C183.544 157.72 182.307 159.029 182.307 160.639C182.307 162.248 183.544 163.558 185.065 163.558Z" fill="white"/>
<path d="M189.564 212.218H159.973L142.113 181.889" stroke="white" stroke-width="1.5" stroke-miterlimit="10"/>
<path d="M189.426 209.299C190.947 209.299 192.184 210.608 192.184 212.218C192.184 213.827 190.947 215.137 189.426 215.137C187.905 215.137 186.668 213.827 186.668 212.218C186.668 210.608 187.905 209.299 189.426 209.299Z" fill="white"/>
<path d="M-8 162.005H48.3899L64.0486 145.428H132.39" stroke="white" stroke-width="1.5" stroke-miterlimit="10"/>
<path d="M132.248 148.347C133.769 148.347 135.006 147.037 135.006 145.428C135.006 143.818 133.769 142.509 132.248 142.509C130.727 142.509 129.49 143.818 129.49 145.428C129.49 147.037 130.727 148.347 132.248 148.347Z" fill="white"/>
<path d="M-8 148.89H36.2082L52.801 131.33L83.4386 132.054" stroke="white" stroke-width="1.5" stroke-miterlimit="10"/>
<path d="M83.2382 134.968C84.7591 135.004 86.0208 133.726 86.055 132.116C86.0893 130.507 84.8814 129.171 83.3605 129.135C81.8396 129.099 80.5779 130.377 80.5437 131.987C80.5094 133.596 81.7174 134.932 83.2382 134.968Z" fill="white"/>
<path d="M-8 133.969H20.1094" stroke="white" stroke-width="1.5" stroke-miterlimit="10"/>
<path d="M19.973 136.888C21.4938 136.888 22.7311 135.578 22.7311 133.969C22.7311 132.359 21.4938 131.05 19.973 131.05C18.4521 131.05 17.2148 132.359 17.2148 133.969C17.2148 135.578 18.4521 136.888 19.973 136.888Z" fill="white"/>
<path d="M-8 298.458H20.1094" stroke="white" stroke-width="1.5" stroke-miterlimit="10"/>
<path d="M19.973 301.377C21.4938 301.377 22.7311 300.068 22.7311 298.458C22.7311 296.848 21.4938 295.539 19.973 295.539C18.4521 295.539 17.2148 296.848 17.2148 298.458C17.2148 300.068 18.4521 301.377 19.973 301.377Z" fill="white"/>
<path d="M-8 284.94H82.4117" stroke="white" stroke-width="1.5" stroke-miterlimit="10"/>
<path d="M82.2757 287.854C83.7966 287.854 85.0338 286.544 85.0338 284.935C85.0338 283.325 83.7966 282.016 82.2757 282.016C80.7548 282.016 79.5176 283.325 79.5176 284.935C79.5176 286.544 80.7548 287.854 82.2757 287.854Z" fill="white"/>
<path d="M-8 45.4825H12.95V14.7139H174.061" stroke="white" stroke-width="1.5" stroke-miterlimit="10"/>
<path d="M173.918 17.6329C175.439 17.6329 176.676 16.3235 176.676 14.7139C176.676 13.1043 175.439 11.7949 173.918 11.7949C172.397 11.7949 171.16 13.1043 171.16 14.7139C171.16 16.3235 172.397 17.6329 173.918 17.6329Z" fill="white"/>
<path d="M-8 26.5091H-0.180428V2.91895H61.5839" stroke="white" stroke-width="1.5" stroke-miterlimit="10"/>
<path d="M61.4476 5.83801C62.9685 5.83801 64.2057 4.5286 64.2057 2.91901C64.2057 1.30941 62.9685 0 61.4476 0C59.9267 0 58.6895 1.30941 58.6895 2.91901C58.6895 4.5286 59.9267 5.83801 61.4476 5.83801Z" fill="white"/>
<path d="M198.708 26.5093H98.8778H79.7715L98.2861 46.1039H222.998" stroke="white" stroke-width="1.5" stroke-miterlimit="10"/>
<path d="M198.567 23.5903C200.088 23.5903 201.325 24.8997 201.325 26.5093C201.325 28.1189 200.088 29.4283 198.567 29.4283C197.046 29.4283 195.809 28.1189 195.809 26.5093C195.809 24.8997 197.046 23.5903 198.567 23.5903Z" fill="white"/>
<path d="M222.862 49.0231C224.383 49.0231 225.62 47.7137 225.62 46.1041C225.62 44.4945 224.383 43.1851 222.862 43.1851C221.341 43.1851 220.104 44.4945 220.104 46.1041C220.104 47.7137 221.341 49.0231 222.862 49.0231Z" fill="white"/>
<path d="M191.504 75.3975H78.8364L48.5704 43.3712L28.0996 42.3775V26.5093H54.0915L85.9566 60.2331H156.416" stroke="white" stroke-width="1.5" stroke-miterlimit="10"/>
<path d="M191.362 72.4785C192.883 72.4785 194.12 73.7879 194.12 75.3975C194.12 77.0071 192.883 78.3165 191.362 78.3165C189.841 78.3165 188.604 77.0071 188.604 75.3975C188.604 73.7879 189.841 72.4785 191.362 72.4785Z" fill="white"/>
<path d="M156.28 63.152C157.8 63.152 159.038 61.8426 159.038 60.233C159.038 58.6234 157.8 57.314 156.28 57.314C154.759 57.314 153.521 58.6234 153.521 60.233C153.521 61.8426 154.759 63.152 156.28 63.152Z" fill="white"/>
<g opacity="0.7">
<path d="M152.93 169.825H216.582L238.974 185.352H271.28L288.078 157.321H380.401L399.782 171.336H456.411" stroke="white" stroke-width="0.5" stroke-miterlimit="10"/>
<path d="M456.363 172.309C456.87 172.309 457.282 171.874 457.282 171.336C457.282 170.799 456.87 170.363 456.363 170.363C455.855 170.363 455.443 170.799 455.443 171.336C455.443 171.874 455.855 172.309 456.363 172.309Z" fill="white"/>
<path d="M152.93 152.42H216.958L239.723 168.231L268.634 167.947L286.078 139.911H380.402L399.782 153.926H486.13" stroke="white" stroke-width="0.5" stroke-miterlimit="10"/>
<path d="M486.081 154.899C486.59 154.899 487.001 154.464 487.001 153.926C487.001 153.388 486.59 152.953 486.081 152.953C485.573 152.953 485.162 153.388 485.162 153.926C485.162 154.464 485.573 154.899 486.081 154.899Z" fill="white"/>
<path d="M152.93 134.745H216.958L239.723 150.562L268.634 150.272L286.078 122.241H379.531" stroke="white" stroke-width="0.5" stroke-miterlimit="10"/>
<path d="M379.482 123.214C379.99 123.214 380.401 122.779 380.401 122.241C380.401 121.703 379.99 121.268 379.482 121.268C378.973 121.268 378.562 121.703 378.562 122.241C378.562 122.779 378.973 123.214 379.482 123.214Z" fill="white"/>
<path d="M291.266 79.6155H205.055L185.67 65.6001H152.93" stroke="white" stroke-width="0.5" stroke-miterlimit="10"/>
<path d="M291.213 78.4976C291.794 78.4976 292.269 78.9996 292.269 79.6155C292.269 80.2314 291.794 80.7334 291.213 80.7334C290.631 80.7334 290.156 80.2314 290.156 79.6155C290.156 78.9996 290.631 78.4976 291.213 78.4976Z" fill="white"/>
<path d="M407.386 95.5716H360.82L348.756 108.34H305.002L292.273 94.8677H205.055L185.67 80.8524H76.8606L49.0887 51.4604H-6.99805" stroke="white" stroke-width="0.5" stroke-miterlimit="10"/>
<path d="M152.93 125.543H255.65" stroke="white" stroke-width="0.5" stroke-miterlimit="10"/>
<path d="M255.601 126.516C256.109 126.516 256.52 126.081 256.52 125.543C256.52 125.006 256.109 124.57 255.601 124.57C255.093 124.57 254.682 125.006 254.682 125.543C254.682 126.081 255.093 126.516 255.601 126.516Z" fill="white"/>
<path d="M324.007 17.9741H237.796L218.411 31.9895H152.93" stroke="white" stroke-width="0.5" stroke-miterlimit="10"/>
<path d="M323.953 19.0923C324.536 19.0923 325.009 18.5918 325.009 17.9744C325.009 17.357 324.536 16.8564 323.953 16.8564C323.369 16.8564 322.896 17.357 322.896 17.9744C322.896 18.5918 323.369 19.0923 323.953 19.0923Z" fill="white"/>
<path d="M343.568 3.95898H237.796L218.411 17.9744H152.93" stroke="white" stroke-width="0.5" stroke-miterlimit="10"/>
<path d="M343.513 5.07714C344.097 5.07714 344.57 4.57664 344.57 3.95923C344.57 3.34182 344.097 2.84131 343.513 2.84131C342.93 2.84131 342.457 3.34182 342.457 3.95923C342.457 4.57664 342.93 5.07714 343.513 5.07714Z" fill="white"/>
<path d="M152.93 200.206H275.598L296.851 167.036" stroke="white" stroke-width="0.5" stroke-miterlimit="10"/>
<path d="M297.585 167.62C297.869 167.175 297.761 166.57 297.341 166.269C296.92 165.969 296.348 166.083 296.064 166.528C295.781 166.973 295.888 167.579 296.309 167.879C296.73 168.179 297.302 168.065 297.585 167.62Z" fill="white"/>
<path d="M152.93 211.68H286.224L313.395 166.829H361.447" stroke="white" stroke-width="0.5" stroke-miterlimit="10"/>
<path d="M361.402 167.801C361.91 167.801 362.321 167.367 362.321 166.828C362.321 166.29 361.91 165.855 361.402 165.855C360.893 165.855 360.482 166.29 360.482 166.828C360.482 167.367 360.893 167.801 361.402 167.801Z" fill="white"/>
<path d="M152.93 223.651H312.348L326.926 200.206H379.531" stroke="white" stroke-width="0.5" stroke-miterlimit="10"/>
<path d="M379.482 201.178C379.99 201.178 380.401 200.744 380.401 200.205C380.401 199.667 379.99 199.232 379.482 199.232C378.973 199.232 378.562 199.667 378.562 200.205C378.562 200.744 378.973 201.178 379.482 201.178Z" fill="white"/>
<path d="M152.93 320.206H204.728L231.717 291.642H274.942H307.57L325.567 272.596H402.149" stroke="white" stroke-width="0.5" stroke-miterlimit="10"/>
<path d="M402.105 273.569C402.613 273.569 403.024 273.133 403.024 272.596C403.024 272.059 402.613 271.623 402.105 271.623C401.597 271.623 401.186 272.059 401.186 272.596C401.186 273.133 401.597 273.569 402.105 273.569Z" fill="white"/>
<path d="M152.93 305.927H200.312L226.626 278.077H267.627H295.941L319.312 253.343L383.737 251.04" stroke="white" stroke-width="0.5" stroke-miterlimit="10"/>
<path d="M383.723 252.013C384.231 251.997 384.627 251.547 384.613 251.009C384.593 250.471 384.172 250.051 383.664 250.067C383.155 250.082 382.759 250.533 382.774 251.071C382.793 251.609 383.214 252.028 383.723 252.013Z" fill="white"/>
<path d="M152.93 291.999H193.959" stroke="white" stroke-width="0.5" stroke-miterlimit="10"/>
<path d="M193.91 292.972C194.418 292.972 194.829 292.537 194.829 291.999C194.829 291.461 194.418 291.026 193.91 291.026C193.401 291.026 192.99 291.461 192.99 291.999C192.99 292.537 193.401 292.972 193.91 292.972Z" fill="white"/>
<path d="M152.93 276.39H208.63" stroke="white" stroke-width="0.5" stroke-miterlimit="10"/>
<path d="M208.581 277.362C209.09 277.362 209.501 276.928 209.501 276.39C209.501 275.851 209.09 275.417 208.581 275.417C208.073 275.417 207.662 275.851 207.662 276.39C207.662 276.928 208.073 277.362 208.581 277.362Z" fill="white"/>
<path d="M152.93 187.106H208.63" stroke="white" stroke-width="0.5" stroke-miterlimit="10"/>
<path d="M208.581 188.079C209.09 188.079 209.501 187.645 209.501 187.106C209.501 186.568 209.09 186.133 208.581 186.133C208.073 186.133 207.662 186.568 207.662 187.106C207.662 187.645 208.073 188.079 208.581 188.079Z" fill="white"/>
<path d="M229.756 235.803H347.881" stroke="white" stroke-width="0.5" stroke-miterlimit="10"/>
<path d="M347.837 236.776C348.345 236.776 348.757 236.34 348.757 235.803C348.757 235.266 348.345 234.83 347.837 234.83C347.33 234.83 346.918 235.266 346.918 235.803C346.918 236.34 347.33 236.776 347.837 236.776Z" fill="white"/>
<path d="M352.243 184.218H320.901L303.047 214.552" stroke="white" stroke-width="0.5" stroke-miterlimit="10"/>
<path d="M352.195 185.191C352.703 185.191 353.114 184.755 353.114 184.218C353.114 183.681 352.703 183.245 352.195 183.245C351.687 183.245 351.275 183.681 351.275 184.218C351.275 184.755 351.687 185.191 352.195 185.191Z" fill="white"/>
<path d="M152.93 234.437H209.32L224.983 251.009H295.066" stroke="white" stroke-width="0.5" stroke-miterlimit="10"/>
<path d="M295.023 251.982C295.531 251.982 295.942 251.546 295.942 251.009C295.942 250.471 295.531 250.036 295.023 250.036C294.515 250.036 294.104 250.471 294.104 251.009C294.104 251.546 294.515 251.982 295.023 251.982Z" fill="white"/>
<path d="M152.93 247.546H197.138L213.731 265.107L246.114 264.346" stroke="white" stroke-width="0.5" stroke-miterlimit="10"/>
<path d="M246.09 265.319C246.598 265.309 246.999 264.864 246.989 264.326C246.98 263.787 246.559 263.363 246.05 263.373C245.542 263.384 245.141 263.829 245.151 264.367C245.16 264.905 245.581 265.33 246.09 265.319Z" fill="white"/>
<path d="M152.93 262.467H182.79" stroke="white" stroke-width="0.5" stroke-miterlimit="10"/>
<path d="M182.742 263.44C183.249 263.44 183.661 263.005 183.661 262.467C183.661 261.93 183.249 261.494 182.742 261.494C182.234 261.494 181.822 261.93 181.822 262.467C181.822 263.005 182.234 263.44 182.742 263.44Z" fill="white"/>
<path d="M78.998 97.9834H182.79" stroke="white" stroke-width="0.5" stroke-miterlimit="10"/>
<path d="M182.74 98.9563C183.247 98.9563 183.659 98.5206 183.659 97.9833C183.659 97.4459 183.247 97.0103 182.74 97.0103C182.232 97.0103 181.82 97.4459 181.82 97.9833C181.82 98.5206 182.232 98.9563 182.74 98.9563Z" fill="white"/>
<path d="M152.93 3.95947H182.79" stroke="white" stroke-width="0.5" stroke-miterlimit="10"/>
<path d="M182.742 4.93233C183.249 4.93233 183.661 4.4967 183.661 3.95933C183.661 3.42196 183.249 2.98633 182.742 2.98633C182.234 2.98633 181.822 3.42196 181.822 3.95933C181.822 4.4967 182.234 4.93233 182.742 4.93233Z" fill="white"/>
<path d="M251.303 49.3696H281.158" stroke="white" stroke-width="0.5" stroke-miterlimit="10"/>
<path d="M281.115 50.3425C281.623 50.3425 282.034 49.9077 282.034 49.3695C282.034 48.8312 281.623 48.3965 281.115 48.3965C280.606 48.3965 280.195 48.8312 280.195 49.3695C280.195 49.9077 280.606 50.3425 281.115 50.3425Z" fill="white"/>
<path d="M152.93 111.502H245.092" stroke="white" stroke-width="0.5" stroke-miterlimit="10"/>
<path d="M245.042 112.475C245.551 112.475 245.962 112.04 245.962 111.502C245.962 110.964 245.551 110.529 245.042 110.529C244.534 110.529 244.123 110.964 244.123 111.502C244.123 112.04 244.534 112.475 245.042 112.475Z" fill="white"/>
<path d="M152.93 43.547H235.981L243.904 35.1626H365.809" stroke="white" stroke-width="0.5" stroke-miterlimit="10"/>
<path d="M365.765 36.1355C366.273 36.1355 366.684 35.6998 366.684 35.1625C366.684 34.6251 366.273 34.1895 365.765 34.1895C365.257 34.1895 364.846 34.6251 364.846 35.1625C364.846 35.6998 365.257 36.1355 365.765 36.1355Z" fill="white"/>
<path d="M152.93 55.1919H209.501L224.436 65.5999H312.754" stroke="white" stroke-width="0.5" stroke-miterlimit="10"/>
<path d="M312.705 66.573C313.212 66.573 313.624 66.1373 313.624 65.6C313.624 65.0626 313.212 64.627 312.705 64.627C312.197 64.627 311.785 65.0626 311.785 65.6C311.785 66.1373 312.197 66.573 312.705 66.573Z" fill="white"/>
</g>
<path d="M-8 35.7889H5.8982V8.55518H97.4053" stroke="white" stroke-miterlimit="10"/>
<path d="M97.3114 10.5014C98.3286 10.5014 99.1502 9.63189 99.1502 8.55538C99.1502 7.47887 98.3286 6.60938 97.3114 6.60938C96.2942 6.60938 95.4727 7.47887 95.4727 8.55538C95.4727 9.63189 96.2942 10.5014 97.3114 10.5014Z" fill="white"/>
<path d="M-8 278.465H96.6962L106.462 288.806H128.415" stroke="white" stroke-miterlimit="10"/>
<path d="M128.321 290.751C129.337 290.751 130.16 289.88 130.16 288.805C130.16 287.731 129.337 286.859 128.321 286.859C127.306 286.859 126.482 287.731 126.482 288.805C126.482 289.88 127.306 290.751 128.321 290.751Z" fill="white"/>
<path d="M-8 253.048H42.0472" stroke="white" stroke-miterlimit="10"/>
<path d="M41.954 254.994C42.9712 254.994 43.7927 254.125 43.7927 253.048C43.7927 251.972 42.9712 251.102 41.954 251.102C40.9368 251.102 40.1152 251.972 40.1152 253.048C40.1152 254.125 40.9368 254.994 41.954 254.994Z" fill="white"/>
<path d="M-6.15625 235.472H54.2486L78.0399 219.164H91.2681" stroke="white" stroke-miterlimit="10"/>
<path d="M91.1747 221.11C92.1919 221.11 93.0134 220.24 93.0134 219.164C93.0134 218.087 92.1919 217.218 91.1747 217.218C90.1575 217.218 89.3359 218.087 89.3359 219.164C89.3359 220.24 90.1575 221.11 91.1747 221.11Z" fill="white"/>
<path d="M-8 219.164H51.6664L60.0777 210.262" stroke="white" stroke-miterlimit="10"/>
<path d="M61.3107 211.706C62.0296 210.945 62.0296 209.713 61.3107 208.952C60.5918 208.192 59.4279 208.192 58.7091 208.952C57.9902 209.713 57.9902 210.945 58.7091 211.706C59.4279 212.467 60.5918 212.467 61.3107 211.706Z" fill="white"/>
</g>
</g>
<defs>
<filter id="filter0_f_102_3049" x="-10.8" y="-2.8" width="500.6" height="407.6" filterUnits="userSpaceOnUse" color-interpolation-filters="sRGB">
<feFlood flood-opacity="0" result="BackgroundImageFix"/>
<feBlend mode="normal" in="SourceGraphic" in2="BackgroundImageFix" result="shape"/>
<feGaussianBlur stdDeviation="1.4" result="effect1_foregroundBlur_102_3049"/>
</filter>
<clipPath id="clip0_102_3049">
<rect width="495" height="402" fill="white" transform="translate(-8)"/>
</clipPath>
</defs>
</svg>
