<svg width="653" height="306" viewBox="0 0 653 306" fill="none" xmlns="http://www.w3.org/2000/svg">
<g opacity="0.71" filter="url(#filter0_f_102_3282)">
<g clip-path="url(#clip0_102_3282)">
<path d="M658 234.65H574.545L545.192 217.887H502.83L480.806 248.155H359.759L334.35 233.018H262.397" stroke="white" stroke-width="1.5" stroke-miterlimit="10"/>
<path d="M262.577 236.169C260.58 236.169 258.961 234.759 258.961 233.018C258.961 231.278 260.58 229.867 262.577 229.867C264.574 229.867 266.193 231.278 266.193 233.018C266.193 234.759 264.574 236.169 262.577 236.169Z" fill="white"/>
<path d="M658 253.446H574.051L544.205 236.371L506.299 236.684L483.428 266.946H359.759L334.35 251.815H223.433" stroke="white" stroke-width="1.5" stroke-miterlimit="10"/>
<path d="M223.612 254.966C221.615 254.966 219.996 253.555 219.996 251.814C219.996 250.074 221.615 248.663 223.612 248.663C225.609 248.663 227.229 250.074 227.229 251.814C227.229 253.555 225.609 254.966 223.612 254.966Z" fill="white"/>
<path d="M658 272.522H574.051L544.205 255.447L506.299 255.76L483.428 286.022H363.196" stroke="white" stroke-width="1.5" stroke-miterlimit="10"/>
<path d="M363.376 289.173C361.382 289.173 359.76 287.76 359.76 286.022C359.76 284.284 361.382 282.871 363.376 282.871C365.37 282.871 366.992 284.284 366.992 286.022C366.992 287.76 365.37 289.173 363.376 289.173Z" fill="white"/>
<path d="M658 330.705H615.074L589.664 315.574H475.311L458.621 301.03H401.256L385.432 314.814H328.335" stroke="white" stroke-width="1.5" stroke-miterlimit="10"/>
<path d="M658 282.457H525.617" stroke="white" stroke-width="1.5" stroke-miterlimit="10"/>
<path d="M525.798 285.608C523.804 285.608 522.182 284.195 522.182 282.457C522.182 280.719 523.804 279.306 525.798 279.306C527.792 279.306 529.414 280.719 529.414 282.457C529.414 284.195 527.792 285.608 525.798 285.608Z" fill="white"/>
<path d="M658 201.851H497.169L470.592 236.008" stroke="white" stroke-width="1.5" stroke-miterlimit="10"/>
<path d="M473.689 237.65C472.567 239.092 470.317 239.466 468.669 238.488C467.021 237.51 466.585 235.549 467.707 234.113C468.829 232.672 471.08 232.297 472.728 233.275C474.382 234.253 474.812 236.214 473.689 237.65Z" fill="white"/>
<path d="M658 189.469H483.242L447.619 237.891H386.9" stroke="white" stroke-width="1.5" stroke-miterlimit="10"/>
<path d="M387.079 241.042C385.085 241.042 383.463 239.628 383.463 237.891C383.463 236.153 385.085 234.739 387.079 234.739C389.073 234.739 390.695 236.153 390.695 237.891C390.695 239.628 389.073 241.042 387.079 241.042Z" fill="white"/>
<path d="M658 176.545H448.985L429.871 201.851H363.196" stroke="white" stroke-width="1.5" stroke-miterlimit="10"/>
<path d="M363.376 205.003C361.382 205.003 359.76 203.589 359.76 201.852C359.76 200.114 361.382 198.7 363.376 198.7C365.37 198.7 366.992 200.114 366.992 201.852C366.992 203.589 365.37 205.003 363.376 205.003Z" fill="white"/>
<path d="M658 54.9102H590.094L554.701 85.7533H498.028H433.308" stroke="white" stroke-width="1.5" stroke-miterlimit="10"/>
<path d="M433.487 88.9048C431.493 88.9048 429.871 87.4911 429.871 85.7534C429.871 84.0157 431.493 82.6021 433.487 82.6021C435.481 82.6021 437.104 84.0157 437.104 85.7534C437.104 87.4911 435.481 88.9048 433.487 88.9048Z" fill="white"/>
<path d="M658 72.2988H590.094L554.701 103.142H498.028H455.255L431.66 123.704H333.535" stroke="white" stroke-width="1.5" stroke-miterlimit="10"/>
<path d="M333.714 126.85C331.72 126.85 330.098 125.436 330.098 123.699C330.098 121.961 331.72 120.547 333.714 120.547C335.708 120.547 337.33 121.961 337.33 123.699C337.33 125.436 335.708 126.85 333.714 126.85Z" fill="white"/>
<path d="M658 87.7202H595.877L561.382 117.787H507.626H470.502L439.861 144.489L357.675 146.903" stroke="white" stroke-width="1.5" stroke-miterlimit="10"/>
<path d="M357.976 150.049C355.982 150.105 354.308 148.747 354.238 147.004C354.167 145.266 355.732 143.808 357.732 143.746C359.733 143.685 361.4 145.048 361.47 146.791C361.541 148.535 359.976 149.987 357.976 150.049Z" fill="white"/>
<path d="M658 102.75H606.501" stroke="white" stroke-width="1.5" stroke-miterlimit="10"/>
<path d="M606.681 105.902C604.687 105.902 603.064 104.488 603.064 102.75C603.064 101.013 604.687 99.5991 606.681 99.5991C608.675 99.5991 610.297 101.013 610.297 102.75C610.297 104.488 608.675 105.902 606.681 105.902Z" fill="white"/>
<path d="M658 119.608H587.266" stroke="white" stroke-width="1.5" stroke-miterlimit="10"/>
<path d="M587.446 122.754C585.452 122.754 583.83 121.34 583.83 119.603C583.83 117.865 585.452 116.451 587.446 116.451C589.44 116.451 591.062 117.865 591.062 119.603C591.062 121.34 589.44 122.754 587.446 122.754Z" fill="white"/>
<path d="M658 215.993H587.266" stroke="white" stroke-width="1.5" stroke-miterlimit="10"/>
<path d="M587.446 219.145C585.452 219.145 583.83 217.731 583.83 215.993C583.83 214.255 585.452 212.842 587.446 212.842C589.44 212.842 591.062 214.255 591.062 215.993C591.062 217.731 589.44 219.145 587.446 219.145Z" fill="white"/>
<path d="M557.279 163.426H404.693" stroke="white" stroke-width="1.5" stroke-miterlimit="10"/>
<path d="M404.872 166.577C402.878 166.577 401.256 165.164 401.256 163.426C401.256 161.688 402.878 160.274 404.872 160.274C406.866 160.274 408.488 161.688 408.488 163.426C408.488 165.164 406.866 166.577 404.872 166.577Z" fill="white"/>
<path d="M398.973 219.111H437.77L461.186 186.368" stroke="white" stroke-width="1.5" stroke-miterlimit="10"/>
<path d="M399.151 215.959C397.157 215.959 395.535 217.373 395.535 219.111C395.535 220.849 397.157 222.262 399.151 222.262C401.145 222.262 402.768 220.849 402.768 219.111C402.768 217.373 401.145 215.959 399.151 215.959Z" fill="white"/>
<path d="M658 164.901H584.067L563.536 147.004H473.933" stroke="white" stroke-width="1.5" stroke-miterlimit="10"/>
<path d="M474.118 150.155C472.124 150.155 470.502 148.742 470.502 147.004C470.502 145.266 472.124 143.853 474.118 143.853C476.112 143.853 477.734 145.266 477.734 147.004C477.734 148.742 476.112 150.155 474.118 150.155Z" fill="white"/>
<path d="M658 150.742H600.038L578.283 131.784L538.114 132.566" stroke="white" stroke-width="1.5" stroke-miterlimit="10"/>
<path d="M538.376 135.712C536.382 135.751 534.728 134.371 534.683 132.633C534.638 130.895 536.222 129.453 538.216 129.414C540.21 129.375 541.864 130.755 541.909 132.493C541.954 134.231 540.37 135.672 538.376 135.712Z" fill="white"/>
<path d="M658 134.633H621.145" stroke="white" stroke-width="1.5" stroke-miterlimit="10"/>
<path d="M621.325 137.785C619.331 137.785 617.709 136.371 617.709 134.633C617.709 132.896 619.331 131.482 621.325 131.482C623.319 131.482 624.941 132.896 624.941 134.633C624.941 136.371 623.319 137.785 621.325 137.785Z" fill="white"/>
<path d="M658 297.621H539.46" stroke="white" stroke-width="1.5" stroke-miterlimit="10"/>
<path d="M539.64 300.767C537.646 300.767 536.023 299.353 536.023 297.616C536.023 295.878 537.646 294.464 539.64 294.464C541.634 294.464 543.256 295.878 543.256 297.616C543.256 299.353 541.634 300.767 539.64 300.767Z" fill="white"/>
<path d="M658 39.1031H630.532V5.88525H419.298" stroke="white" stroke-width="1.5" stroke-miterlimit="10"/>
<path d="M419.483 9.03662C417.489 9.03662 415.867 7.62297 415.867 5.88525C415.867 4.14753 417.489 2.73389 419.483 2.73389C421.477 2.73389 423.1 4.14753 423.1 5.88525C423.1 7.62297 421.477 9.03662 419.483 9.03662Z" fill="white"/>
<path d="M658 18.6193H647.748V-6.84863H566.768" stroke="white" stroke-width="1.5" stroke-miterlimit="10"/>
<path d="M386.983 18.6191H517.871H542.922L518.647 39.7735H355.136" stroke="white" stroke-width="1.5" stroke-miterlimit="10"/>
<path d="M387.169 15.4678C385.175 15.4678 383.553 16.8814 383.553 18.6191C383.553 20.3569 385.175 21.7705 387.169 21.7705C389.163 21.7705 390.785 20.3569 390.785 18.6191C390.785 16.8814 389.163 15.4678 387.169 15.4678Z" fill="white"/>
<path d="M355.315 42.9248C353.321 42.9248 351.699 41.5112 351.699 39.7734C351.699 38.0357 353.321 36.6221 355.315 36.6221C357.309 36.6221 358.932 38.0357 358.932 39.7734C358.932 41.5112 357.309 42.9248 355.315 42.9248Z" fill="white"/>
<path d="M396.427 71.3989H544.146L583.829 36.8233L610.668 35.7505V18.6191H576.59L534.811 55.0275H442.431" stroke="white" stroke-width="1.5" stroke-miterlimit="10"/>
<path d="M396.612 68.2476C394.618 68.2476 392.996 69.6612 392.996 71.3989C392.996 73.1366 394.618 74.5503 396.612 74.5503C398.606 74.5503 400.229 73.1366 400.229 71.3989C400.229 69.6612 398.606 68.2476 396.612 68.2476Z" fill="white"/>
<path d="M442.61 58.1787C440.616 58.1787 438.994 56.7651 438.994 55.0273C438.994 53.2896 440.616 51.876 442.61 51.876C444.604 51.876 446.227 53.2896 446.227 55.0273C446.227 56.7651 444.604 58.1787 442.61 58.1787Z" fill="white"/>
<g opacity="0.7">
<path d="M447.004 173.343H363.549L334.19 190.106H291.834L269.81 159.844H148.763L123.353 174.975H49.1059" stroke="white" stroke-width="0.5" stroke-miterlimit="10"/>
<path d="M49.1696 176.025C48.5039 176.025 47.9642 175.555 47.9642 174.975C47.9642 174.395 48.5039 173.924 49.1696 173.924C49.8353 173.924 50.375 174.395 50.375 174.975C50.375 175.555 49.8353 176.025 49.1696 176.025Z" fill="white"/>
<path d="M447.004 154.552H363.055L333.209 171.622L295.303 171.315L272.432 141.047H148.763L123.353 156.178H10.1419" stroke="white" stroke-width="0.5" stroke-miterlimit="10"/>
<path d="M10.2067 157.229C9.53989 157.229 9.0013 156.759 9.0013 156.178C9.0013 155.597 9.53989 155.128 10.2067 155.128C10.8735 155.128 11.4121 155.597 11.4121 156.178C11.4121 156.759 10.8735 157.229 10.2067 157.229Z" fill="white"/>
<path d="M447.004 135.471H363.055L333.209 152.547L295.303 152.234L272.432 121.972H149.904" stroke="white" stroke-width="0.5" stroke-miterlimit="10"/>
<path d="M149.968 123.022C149.302 123.022 148.763 122.553 148.763 121.972C148.763 121.391 149.302 120.921 149.968 120.921C150.635 120.921 151.174 121.391 151.174 121.972C151.174 122.553 150.635 123.022 149.968 123.022Z" fill="white"/>
<path d="M265.629 75.9528H378.661L404.077 60.8218H447.004" stroke="white" stroke-width="0.5" stroke-miterlimit="10"/>
<path d="M265.699 74.7461C264.936 74.7461 264.314 75.2881 264.314 75.953C264.314 76.6179 264.936 77.1599 265.699 77.1599C266.462 77.1599 267.084 76.6179 267.084 75.953C267.084 75.2881 266.462 74.7461 265.699 74.7461Z" fill="white"/>
<path d="M113.383 93.1791H174.435L190.253 106.964H247.618L264.308 92.4192H378.661L404.077 77.2882H546.738L583.15 45.5566H656.686" stroke="white" stroke-width="0.5" stroke-miterlimit="10"/>
<path d="M447.004 125.536H312.326" stroke="white" stroke-width="0.5" stroke-miterlimit="10"/>
<path d="M312.39 126.587C311.725 126.587 311.185 126.116 311.185 125.536C311.185 124.956 311.725 124.486 312.39 124.486C313.056 124.486 313.596 124.956 313.596 125.536C313.596 126.116 313.056 126.587 312.39 126.587Z" fill="white"/>
<path d="M222.703 9.40527H335.735L361.151 24.5363H447.004" stroke="white" stroke-width="0.5" stroke-miterlimit="10"/>
<path d="M222.773 10.6121C222.008 10.6121 221.388 10.0717 221.388 9.40515C221.388 8.73859 222.008 8.19824 222.773 8.19824C223.538 8.19824 224.158 8.73859 224.158 9.40515C224.158 10.0717 223.538 10.6121 222.773 10.6121Z" fill="white"/>
<path d="M197.056 -5.72559H335.735L361.151 9.40544H447.004" stroke="white" stroke-width="0.5" stroke-miterlimit="10"/>
<path d="M447.004 206.142H286.172L258.307 170.332" stroke="white" stroke-width="0.5" stroke-miterlimit="10"/>
<path d="M257.345 170.963C256.974 170.483 257.115 169.829 257.666 169.505C258.217 169.181 258.968 169.304 259.339 169.784C259.711 170.265 259.57 170.919 259.019 171.243C258.467 171.567 257.717 171.444 257.345 170.963Z" fill="white"/>
<path d="M447.004 218.529H272.24L236.616 170.108H173.615" stroke="white" stroke-width="0.5" stroke-miterlimit="10"/>
<path d="M173.674 171.159C173.007 171.159 172.468 170.689 172.468 170.108C172.468 169.527 173.007 169.058 173.674 169.058C174.34 169.058 174.879 169.527 174.879 170.108C174.879 170.689 174.34 171.159 173.674 171.159Z" fill="white"/>
<path d="M447.004 231.454H237.988L218.875 206.142H149.904" stroke="white" stroke-width="0.5" stroke-miterlimit="10"/>
<path d="M149.968 207.193C149.302 207.193 148.763 206.723 148.763 206.142C148.763 205.561 149.302 205.092 149.968 205.092C150.635 205.092 151.174 205.561 151.174 206.142C151.174 206.723 150.635 207.193 149.968 207.193Z" fill="white"/>
<path d="M447.004 335.695H379.091L343.705 304.857H287.032H244.253L220.658 284.295H120.25" stroke="white" stroke-width="0.5" stroke-miterlimit="10"/>
<path d="M120.308 285.346C119.643 285.346 119.103 284.875 119.103 284.295C119.103 283.715 119.643 283.245 120.308 283.245C120.974 283.245 121.514 283.715 121.514 284.295C121.514 284.875 120.974 285.346 120.308 285.346Z" fill="white"/>
<path d="M447.004 320.279H384.881L350.379 290.212H296.624H259.5L228.858 263.509L144.39 261.023" stroke="white" stroke-width="0.5" stroke-miterlimit="10"/>
<path d="M144.41 262.074C143.743 262.057 143.224 261.571 143.243 260.99C143.269 260.408 143.82 259.956 144.487 259.973C145.154 259.989 145.673 260.475 145.654 261.057C145.628 261.638 145.077 262.09 144.41 262.074Z" fill="white"/>
<path d="M447.004 305.242H393.21" stroke="white" stroke-width="0.5" stroke-miterlimit="10"/>
<path d="M393.273 306.293C392.606 306.293 392.068 305.823 392.068 305.242C392.068 304.661 392.606 304.192 393.273 304.192C393.94 304.192 394.479 304.661 394.479 305.242C394.479 305.823 393.94 306.293 393.273 306.293Z" fill="white"/>
<path d="M447.004 288.391H373.974" stroke="white" stroke-width="0.5" stroke-miterlimit="10"/>
<path d="M374.039 289.441C373.372 289.441 372.833 288.972 372.833 288.391C372.833 287.81 373.372 287.34 374.039 287.34C374.706 287.34 375.244 287.81 375.244 288.391C375.244 288.972 374.706 289.441 374.039 289.441Z" fill="white"/>
<path d="M447.004 192H373.974" stroke="white" stroke-width="0.5" stroke-miterlimit="10"/>
<path d="M374.039 193.051C373.372 193.051 372.833 192.581 372.833 192C372.833 191.419 373.372 190.95 374.039 190.95C374.706 190.95 375.244 191.419 375.244 192C375.244 192.581 374.706 193.051 374.039 193.051Z" fill="white"/>
<path d="M346.275 244.573H191.4" stroke="white" stroke-width="0.5" stroke-miterlimit="10"/>
<path d="M191.459 245.624C190.793 245.624 190.253 245.154 190.253 244.573C190.253 243.993 190.793 243.523 191.459 243.523C192.124 243.523 192.664 243.993 192.664 244.573C192.664 245.154 192.124 245.624 191.459 245.624Z" fill="white"/>
<path d="M185.682 188.882H226.774L250.184 221.631" stroke="white" stroke-width="0.5" stroke-miterlimit="10"/>
<path d="M185.746 189.933C185.08 189.933 184.54 189.463 184.54 188.882C184.54 188.302 185.08 187.832 185.746 187.832C186.411 187.832 186.951 188.302 186.951 188.882C186.951 189.463 186.411 189.933 185.746 189.933Z" fill="white"/>
<path d="M447.004 243.098H373.07L352.534 260.989H260.647" stroke="white" stroke-width="0.5" stroke-miterlimit="10"/>
<path d="M260.705 262.04C260.039 262.04 259.499 261.57 259.499 260.989C259.499 260.409 260.039 259.939 260.705 259.939C261.37 259.939 261.91 260.409 261.91 260.989C261.91 261.57 261.37 262.04 260.705 262.04Z" fill="white"/>
<path d="M447.004 257.251H389.042L367.287 276.21L324.829 275.389" stroke="white" stroke-width="0.5" stroke-miterlimit="10"/>
<path d="M324.86 276.439C324.194 276.428 323.668 275.947 323.681 275.366C323.694 274.785 324.245 274.327 324.912 274.338C325.579 274.349 326.104 274.83 326.092 275.411C326.079 275.992 325.527 276.45 324.86 276.439Z" fill="white"/>
<path d="M447.004 273.36H407.854" stroke="white" stroke-width="0.5" stroke-miterlimit="10"/>
<path d="M407.918 274.41C407.252 274.41 406.712 273.94 406.712 273.36C406.712 272.78 407.252 272.31 407.918 272.31C408.583 272.31 409.123 272.78 409.123 273.36C409.123 273.94 408.583 274.41 407.918 274.41Z" fill="white"/>
<path d="M543.936 95.7827H407.853" stroke="white" stroke-width="0.5" stroke-miterlimit="10"/>
<path d="M407.918 96.8333C407.252 96.8333 406.712 96.363 406.712 95.7829C406.712 95.2027 407.252 94.7324 407.918 94.7324C408.583 94.7324 409.123 95.2027 409.123 95.7829C409.123 96.363 408.583 96.8333 407.918 96.8333Z" fill="white"/>
<path d="M318.025 43.2993H278.882" stroke="white" stroke-width="0.5" stroke-miterlimit="10"/>
<path d="M278.939 44.3499C278.272 44.3499 277.734 43.8806 277.734 43.2995C277.734 42.7184 278.272 42.249 278.939 42.249C279.606 42.249 280.145 42.7184 280.145 43.2995C280.145 43.8806 279.606 44.3499 278.939 44.3499Z" fill="white"/>
<path d="M447.004 110.377H326.169" stroke="white" stroke-width="0.5" stroke-miterlimit="10"/>
<path d="M326.232 111.428C325.565 111.428 325.027 110.959 325.027 110.378C325.027 109.797 325.565 109.327 326.232 109.327C326.899 109.327 327.438 109.797 327.438 110.378C327.438 110.959 326.899 111.428 326.232 111.428Z" fill="white"/>
<path d="M447.004 37.0132H338.114L327.727 27.9614H167.896" stroke="white" stroke-width="0.5" stroke-miterlimit="10"/>
<path d="M167.953 29.012C167.287 29.012 166.747 28.5417 166.747 27.9616C166.747 27.3814 167.287 26.9111 167.953 26.9111C168.619 26.9111 169.158 27.3814 169.158 27.9616C169.158 28.5417 168.619 29.012 167.953 29.012Z" fill="white"/>
<path d="M447.004 49.5854H372.833L353.252 60.822H237.456" stroke="white" stroke-width="0.5" stroke-miterlimit="10"/>
<path d="M237.521 61.8724C236.855 61.8724 236.316 61.4021 236.316 60.8219C236.316 60.2418 236.855 59.7715 237.521 59.7715C238.187 59.7715 238.727 60.2418 238.727 60.8219C238.727 61.4021 238.187 61.8724 237.521 61.8724Z" fill="white"/>
</g>
<path d="M658 28.6379H639.778V-0.763672H519.802" stroke="white" stroke-miterlimit="10"/>
<path d="M519.923 1.33707C518.59 1.33707 517.512 0.39837 517.512 -0.763836C517.512 -1.92604 518.59 -2.86475 519.923 -2.86475C521.257 -2.86475 522.334 -1.92604 522.334 -0.763836C522.334 0.39837 521.257 1.33707 519.923 1.33707Z" fill="white"/>
<path d="M658 290.631H520.732L507.927 301.795H479.145" stroke="white" stroke-miterlimit="10"/>
<path d="M479.267 303.896C477.935 303.896 476.856 302.956 476.856 301.795C476.856 300.635 477.935 299.694 479.267 299.694C480.598 299.694 481.678 300.635 481.678 301.795C481.678 302.956 480.598 303.896 479.267 303.896Z" fill="white"/>
<path d="M658 263.191H592.383" stroke="white" stroke-miterlimit="10"/>
<path d="M592.505 265.292C591.172 265.292 590.094 264.353 590.094 263.191C590.094 262.029 591.172 261.09 592.505 261.09C593.839 261.09 594.916 262.029 594.916 263.191C594.916 264.353 593.839 265.292 592.505 265.292Z" fill="white"/>
<path d="M655.582 244.216H576.385L545.192 226.609H527.848" stroke="white" stroke-miterlimit="10"/>
<path d="M527.97 228.71C526.636 228.71 525.559 227.771 525.559 226.609C525.559 225.447 526.636 224.508 527.97 224.508C529.304 224.508 530.381 225.447 530.381 226.609C530.381 227.771 529.304 228.71 527.97 228.71Z" fill="white"/>
<path d="M658 226.61H579.771L568.743 216.999" stroke="white" stroke-miterlimit="10"/>
<path d="M567.126 218.558C566.184 217.736 566.184 216.407 567.126 215.585C568.069 214.764 569.595 214.764 570.537 215.585C571.48 216.407 571.48 217.736 570.537 218.558C569.595 219.379 568.069 219.379 567.126 218.558Z" fill="white"/>
</g>
</g>
<defs>
<filter id="filter0_f_102_3282" x="0.8" y="-18.2" width="665.4" height="450.4" filterUnits="userSpaceOnUse" color-interpolation-filters="sRGB">
<feFlood flood-opacity="0" result="BackgroundImageFix"/>
<feBlend mode="normal" in="SourceGraphic" in2="BackgroundImageFix" result="shape"/>
<feGaussianBlur stdDeviation="4.1" result="effect1_foregroundBlur_102_3282"/>
</filter>
<clipPath id="clip0_102_3282">
<rect width="649" height="434" fill="white" transform="matrix(-1 0 0 1 658 -10)"/>
</clipPath>
</defs>
</svg>
