<svg width="23" height="23" viewBox="0 0 23 23" fill="none" xmlns="http://www.w3.org/2000/svg">
<path d="M11.6255 0C5.35278 0 0.25 5.10254 0.25 11.3748C0.25 17.6474 5.35302 22.7505 11.6252 22.7505C17.8972 22.7505 22.9998 17.6474 22.9998 11.3748C23 5.10278 17.8974 0 11.6255 0ZM1.39792 11.3748C1.39792 9.89234 1.71587 8.48438 2.28345 7.21282L7.16213 20.5794C3.75074 18.9214 1.39792 15.423 1.39792 11.3748ZM11.6255 21.6028C10.6215 21.6028 9.65253 21.4555 8.73627 21.186L11.8047 12.2695L14.9489 20.882C14.9692 20.9328 14.9941 20.9792 15.0217 21.0229C13.9587 21.3969 12.8164 21.6028 11.6255 21.6028ZM13.0346 6.57976C13.6502 6.54738 14.2055 6.48237 14.2055 6.48237C14.7563 6.41713 14.6917 5.60748 14.14 5.63986C14.14 5.63986 12.4836 5.76964 11.4139 5.76964C10.4092 5.76964 8.71996 5.63986 8.71996 5.63986C8.16869 5.60748 8.10439 6.44998 8.65543 6.48237C8.65543 6.48237 9.17738 6.54738 9.72794 6.57976L11.3212 10.9457L9.08306 17.6581L5.3594 6.58C5.97591 6.54785 6.53002 6.48261 6.53002 6.48261C7.08081 6.4176 7.01581 5.60748 6.4643 5.64057C6.4643 5.64057 4.8086 5.77035 3.73869 5.77035C3.5465 5.77035 3.32027 5.76539 3.08057 5.75806C4.90883 2.98115 8.05263 1.14792 11.6255 1.14792C14.2884 1.14792 16.7124 2.16583 18.5317 3.83264C18.4875 3.83028 18.4447 3.82437 18.3988 3.82437C17.3946 3.82437 16.6817 4.69949 16.6817 5.63963C16.6817 6.48213 17.1675 7.19557 17.6859 8.03807C18.0752 8.71936 18.5291 9.59472 18.5291 10.8587C18.5291 11.7343 18.1929 12.7499 17.7506 14.1649L16.7306 17.5739L13.0346 6.57976ZM16.7668 20.2154L19.8907 11.1833C20.4748 9.7245 20.6684 8.5579 20.6684 7.5199C20.6684 7.1438 20.6439 6.79417 20.5994 6.46819C21.3984 7.92508 21.853 9.59708 21.8525 11.3752C21.8523 15.1481 19.807 18.4424 16.7668 20.2154Z" fill="white"/>
</svg>
