<svg width="36" height="36" viewBox="0 0 36 36" fill="none" xmlns="http://www.w3.org/2000/svg">
<g clip-path="url(#clip0_158_2006)">
<path d="M27.0594 11.2046H9.77161C9.21862 11.2046 8.76758 11.6517 8.76758 12.2058V15.6144C8.76758 16.1685 9.21862 16.6156 9.77161 16.6156H27.0594C27.6113 16.6156 28.062 16.1685 28.062 15.6144V12.2058C28.062 11.6517 27.6106 11.2046 27.0594 11.2046ZM10.5756 13.5787C10.234 13.5787 9.95713 13.3026 9.95713 12.9606C9.95713 12.6197 10.234 12.3428 10.5756 12.3428C10.918 12.3428 11.1938 12.6197 11.1938 12.9606C11.1938 13.3029 10.918 13.5787 10.5756 13.5787ZM25.4252 15.3609H21.0578V13.9105H25.4255L25.4252 15.3609Z" fill="url(#paint0_linear_158_2006)"/>
<path d="M27.0594 17.166H9.77161C9.21862 17.166 8.76758 17.6139 8.76758 18.1679V21.5762C8.76758 22.1296 9.21862 22.5778 9.77161 22.5778H27.0594C27.6113 22.5778 28.062 22.1296 28.062 21.5762V18.1679C28.062 17.6139 27.6106 17.166 27.0594 17.166ZM10.5756 19.5409C10.234 19.5409 9.95713 19.2658 9.95713 18.9227C9.95713 18.5821 10.234 18.3039 10.5756 18.3039C10.918 18.3039 11.1938 18.5818 11.1938 18.9227C11.1938 19.2654 10.918 19.5409 10.5756 19.5409ZM25.4252 21.3227H21.0578V19.8719H25.4255L25.4252 21.3227Z" fill="url(#paint1_linear_158_2006)"/>
<path d="M27.0594 23.1279H9.77161C9.21862 23.1279 8.76758 23.5758 8.76758 24.1295V27.5378C8.76758 28.0915 9.21862 28.5397 9.77161 28.5397H27.0594C27.6113 28.5397 28.062 28.0915 28.062 27.5378V24.1295C28.062 23.5758 27.6106 23.1279 27.0594 23.1279ZM10.5756 25.5021C10.234 25.5021 9.95713 25.2277 9.95713 24.8839C9.95713 24.5426 10.234 24.2665 10.5756 24.2665C10.918 24.2665 11.1938 24.5423 11.1938 24.8839C11.1938 25.2277 10.918 25.5021 10.5756 25.5021ZM25.4252 27.2839H21.0578V25.8331H25.4255L25.4252 27.2839Z" fill="url(#paint2_linear_158_2006)"/>
<path d="M21.4001 31.7998H19.5577V29.1194H17.2721V31.7998H15.4276V32.5061H8.97852V34.7928H15.4276V35.5001H21.4001V34.7928H27.8488V32.5061H21.4001V31.7998Z" fill="url(#paint3_linear_158_2006)"/>
<path d="M28.6188 5.7064C28.3713 5.68551 28.144 5.55912 27.9968 5.3598C26.6107 3.48803 24.3885 2.33353 22.0235 2.33353C21.8755 2.33353 21.7272 2.33814 21.5789 2.34699C21.3735 2.35938 21.1717 2.29813 21.0078 2.17422C19.568 1.0884 17.8233 0.5 15.9972 0.5C12.7252 0.5 9.82109 2.39549 8.46373 5.26563C8.33911 5.52868 8.09058 5.71136 7.80239 5.75172C4.19622 6.25904 1.41211 9.36462 1.41211 13.1082C1.41211 16.6772 3.94238 19.6645 7.30356 20.375V18.168C7.30356 17.8929 7.35454 17.6306 7.43916 17.3838C5.64173 16.7929 4.3389 15.101 4.3389 13.1085C4.3389 10.6264 6.3583 8.60699 8.84077 8.60699C8.9661 8.60699 9.0893 8.6169 9.21215 8.62681C9.92765 8.6824 10.5748 8.21826 10.7494 7.52436C11.3544 5.11198 13.5129 3.42714 15.9968 3.42714C17.4165 3.42714 18.7601 3.97518 19.7797 4.97072C20.128 5.31059 20.6233 5.45539 21.0999 5.35591C21.404 5.29254 21.7145 5.26032 22.0235 5.26032C23.7615 5.26032 25.3135 6.23745 26.0737 7.81006C26.341 8.36306 26.9251 8.69231 27.5365 8.62929C27.6888 8.61407 27.8406 8.60663 27.9879 8.60663C30.4704 8.60663 32.4901 10.626 32.4901 13.1082C32.4901 15.101 31.1866 16.7926 29.3895 17.3835C29.4738 17.6306 29.5248 17.8925 29.5248 18.1676V20.3743C32.8856 19.6641 35.4173 16.6772 35.4173 13.1078C35.4169 9.22442 32.4204 6.02715 28.6188 5.7064Z" fill="url(#paint4_linear_158_2006)"/>
</g>
<defs>
<linearGradient id="paint0_linear_158_2006" x1="12.9021" y1="12.1064" x2="13.8182" y2="16.6421" gradientUnits="userSpaceOnUse">
<stop stop-color="#1BABC3"/>
<stop offset="1" stop-color="#88E7F7"/>
</linearGradient>
<linearGradient id="paint1_linear_158_2006" x1="12.9021" y1="18.068" x2="13.8184" y2="22.6042" gradientUnits="userSpaceOnUse">
<stop stop-color="#1BABC3"/>
<stop offset="1" stop-color="#88E7F7"/>
</linearGradient>
<linearGradient id="paint2_linear_158_2006" x1="12.9021" y1="24.0299" x2="13.8184" y2="28.5661" gradientUnits="userSpaceOnUse">
<stop stop-color="#1BABC3"/>
<stop offset="1" stop-color="#88E7F7"/>
</linearGradient>
<linearGradient id="paint3_linear_158_2006" x1="13.0221" y1="30.1828" x2="14.3018" y2="35.4379" gradientUnits="userSpaceOnUse">
<stop stop-color="#1BABC3"/>
<stop offset="1" stop-color="#88E7F7"/>
</linearGradient>
<linearGradient id="paint4_linear_158_2006" x1="8.69893" y1="3.81249" x2="14.8989" y2="18.5423" gradientUnits="userSpaceOnUse">
<stop stop-color="#1BABC3"/>
<stop offset="1" stop-color="#88E7F7"/>
</linearGradient>
<clipPath id="clip0_158_2006">
<rect width="35" height="35" fill="white" transform="translate(0.915039 0.5)"/>
</clipPath>
</defs>
</svg>
