<svg width="30" height="30" viewBox="0 0 30 30" fill="none" xmlns="http://www.w3.org/2000/svg">
<path d="M27.5 23.75H17.5M2.5 23.75H12.5" stroke="#FFFCFC" stroke-width="2" stroke-linecap="round"/>
<path d="M15 21.25V17.5" stroke="#FFFCFC" stroke-width="2" stroke-linecap="round"/>
<path d="M15 26.25C16.3807 26.25 17.5 25.1307 17.5 23.75C17.5 22.3693 16.3807 21.25 15 21.25C13.6193 21.25 12.5 22.3693 12.5 23.75C12.5 25.1307 13.6193 26.25 15 26.25Z" stroke="#FFFCFC" stroke-width="2"/>
<path d="M2.5 13.75C2.5 11.6789 4.17894 10 6.25 10H23.75C25.8211 10 27.5 11.6789 27.5 13.75C27.5 15.8211 25.8211 17.5 23.75 17.5H6.25C4.17894 17.5 2.5 15.8211 2.5 13.75Z" stroke="#FFFCFC" stroke-width="2"/>
<path d="M2.5 6.25C2.5 4.17894 4.17894 2.5 6.25 2.5H23.75C25.8211 2.5 27.5 4.17894 27.5 6.25C27.5 8.32106 25.8211 10 23.75 10H6.25C4.17894 10 2.5 8.32106 2.5 6.25Z" stroke="#FFFCFC" stroke-width="2"/>
<path d="M16.25 6.25H23.75" stroke="#FFFCFC" stroke-width="2" stroke-linecap="round"/>
<path d="M16.25 13.75H23.75" stroke="#FFFCFC" stroke-width="2" stroke-linecap="round"/>
<path d="M7.5 7.5C8.19036 7.5 8.75 6.94036 8.75 6.25C8.75 5.55964 8.19036 5 7.5 5C6.80964 5 6.25 5.55964 6.25 6.25C6.25 6.94036 6.80964 7.5 7.5 7.5Z" fill="#FFFCFC"/>
<path d="M7.5 15C8.19036 15 8.75 14.4404 8.75 13.75C8.75 13.0596 8.19036 12.5 7.5 12.5C6.80964 12.5 6.25 13.0596 6.25 13.75C6.25 14.4404 6.80964 15 7.5 15Z" fill="#FFFCFC"/>
</svg>
