<svg width="31" height="30" viewBox="0 0 31 30" fill="none" xmlns="http://www.w3.org/2000/svg">
<path d="M16.75 27.1875C17.2678 27.1875 17.6875 26.7677 17.6875 26.25C17.6875 25.7323 17.2678 25.3125 16.75 25.3125V27.1875ZM27.0625 16.25C27.0625 16.7678 27.4823 17.1875 28 17.1875C28.5177 17.1875 28.9375 16.7678 28.9375 16.25H27.0625ZM13 4.6875H18V2.8125H13V4.6875ZM3.9375 16.25V15H2.0625V16.25H3.9375ZM3.9375 15V13.75H2.0625V15H3.9375ZM16.75 25.3125H13V27.1875H16.75V25.3125ZM27.0625 13.75V15H28.9375V13.75H27.0625ZM2.0625 16.25C2.0625 18.5805 2.06051 20.4228 2.25391 21.8613C2.45095 23.3268 2.8661 24.513 3.80155 25.4485L5.12738 24.1226C4.59836 23.5936 4.28128 22.869 4.1122 21.6115C3.93949 20.3269 3.9375 18.6335 3.9375 16.25H2.0625ZM13 25.3125C10.6165 25.3125 8.92314 25.3105 7.63856 25.1378C6.38095 24.9688 5.65639 24.6516 5.12738 24.1226L3.80155 25.4485C4.73701 26.3839 5.92319 26.799 7.38873 26.9961C8.82728 27.1895 10.6695 27.1875 13 27.1875V25.3125ZM18 4.6875C20.3835 4.6875 22.0769 4.68949 23.3615 4.8622C24.619 5.03128 25.3436 5.34836 25.8726 5.87738L27.1985 4.55155C26.263 3.6161 25.0767 3.20095 23.6112 3.00391C22.1728 2.81051 20.3305 2.8125 18 2.8125V4.6875ZM28.9375 13.75C28.9375 11.4195 28.9395 9.57728 28.7461 8.13873C28.549 6.67319 28.1339 5.48701 27.1985 4.55155L25.8726 5.87738C26.4016 6.40639 26.7188 7.13095 26.8878 8.38856C27.0605 9.67314 27.0625 11.3665 27.0625 13.75H28.9375ZM13 2.8125C10.6695 2.8125 8.82728 2.81051 7.38873 3.00391C5.9232 3.20095 4.73701 3.6161 3.80155 4.55155L5.12738 5.87738C5.65639 5.34836 6.38095 5.03128 7.63856 4.8622C8.92314 4.68949 10.6165 4.6875 13 4.6875V2.8125ZM3.9375 13.75C3.9375 11.3665 3.93949 9.67314 4.1122 8.38856C4.28128 7.13095 4.59836 6.40639 5.12738 5.87738L3.80155 4.55155C2.8661 5.48701 2.45095 6.67319 2.25391 8.13873C2.06051 9.57728 2.0625 11.4195 2.0625 13.75H3.9375ZM3 15.9375H28V14.0625H3V15.9375ZM27.0625 15V16.25H28.9375V15H27.0625Z" fill="#FFFCFC"/>
<path d="M17.375 9.375H23" stroke="#FFFCFC" stroke-width="2" stroke-linecap="round"/>
<path d="M8 21.875V19.375" stroke="#FFFCFC" stroke-width="2" stroke-linecap="round"/>
<path d="M8 10.625V8.125" stroke="#FFFCFC" stroke-width="2" stroke-linecap="round"/>
<path d="M11.75 21.875V19.375" stroke="#FFFCFC" stroke-width="2" stroke-linecap="round"/>
<path d="M11.75 10.625V8.125" stroke="#FFFCFC" stroke-width="2" stroke-linecap="round"/>
<path d="M24.6666 21.1065C24.9274 21.009 25.2078 20.9559 25.5 20.9559C25.7864 20.9559 26.0616 21.0069 26.3179 21.1007M26.3179 21.1007C27.2969 21.4595 28 22.4443 28 23.603C28 25.0649 26.8807 26.25 25.5 26.25H21.125C20.0895 26.25 19.25 25.3611 19.25 24.2648C19.25 23.1683 20.0895 22.2794 21.125 22.2794C21.2492 22.2794 21.3708 22.2923 21.4884 22.3166M26.3179 21.1007C26.1788 19.7783 25.1195 18.75 23.8334 18.75C22.4526 18.75 21.3334 19.9351 21.3334 21.397C21.3334 21.7204 21.3881 22.0303 21.4884 22.3166M21.4884 22.3166C21.7353 22.368 21.9647 22.4706 22.1666 22.6137" stroke="#FFFCFC" stroke-width="2" stroke-linecap="round"/>
</svg>
