<svg width="31" height="30" viewBox="0 0 31 30" fill="none" xmlns="http://www.w3.org/2000/svg">
<path d="M16.75 27.1875C17.2678 27.1875 17.6875 26.7677 17.6875 26.25C17.6875 25.7323 17.2678 25.3125 16.75 25.3125V27.1875ZM27.0625 16.25C27.0625 16.7678 27.4823 17.1875 28 17.1875C28.5177 17.1875 28.9375 16.7678 28.9375 16.25H27.0625ZM13 4.6875H18V2.8125H13V4.6875ZM3.9375 16.25V15H2.0625V16.25H3.9375ZM3.9375 15V13.75H2.0625V15H3.9375ZM16.75 25.3125H13V27.1875H16.75V25.3125ZM27.0625 13.75V15H28.9375V13.75H27.0625ZM2.0625 16.25C2.0625 18.5805 2.06051 20.4228 2.25391 21.8613C2.45095 23.3268 2.8661 24.513 3.80155 25.4485L5.12738 24.1226C4.59836 23.5936 4.28128 22.869 4.1122 21.6115C3.93949 20.3269 3.9375 18.6335 3.9375 16.25H2.0625ZM13 25.3125C10.6165 25.3125 8.92314 25.3105 7.63856 25.1378C6.38095 24.9688 5.65639 24.6516 5.12738 24.1226L3.80155 25.4485C4.73701 26.3839 5.92319 26.799 7.38873 26.9961C8.82728 27.1895 10.6695 27.1875 13 27.1875V25.3125ZM18 4.6875C20.3835 4.6875 22.0769 4.68949 23.3615 4.8622C24.619 5.03128 25.3436 5.34836 25.8726 5.87738L27.1985 4.55155C26.263 3.6161 25.0767 3.20095 23.6112 3.00391C22.1728 2.81051 20.3305 2.8125 18 2.8125V4.6875ZM28.9375 13.75C28.9375 11.4195 28.9395 9.57728 28.7461 8.13873C28.549 6.67319 28.1339 5.48701 27.1985 4.55155L25.8726 5.87738C26.4016 6.40639 26.7188 7.13095 26.8878 8.38856C27.0605 9.67314 27.0625 11.3665 27.0625 13.75H28.9375ZM13 2.8125C10.6695 2.8125 8.82728 2.81051 7.38873 3.00391C5.9232 3.20095 4.73701 3.6161 3.80155 4.55155L5.12738 5.87738C5.65639 5.34836 6.38095 5.03128 7.63856 4.8622C8.92314 4.68949 10.6165 4.6875 13 4.6875V2.8125ZM3.9375 13.75C3.9375 11.3665 3.93949 9.67314 4.1122 8.38856C4.28128 7.13095 4.59836 6.40639 5.12738 5.87738L3.80155 4.55155C2.8661 5.48701 2.45095 6.67319 2.25391 8.13873C2.06051 9.57728 2.0625 11.4195 2.0625 13.75H3.9375ZM3 15.9375H28V14.0625H3V15.9375ZM27.0625 15V16.25H28.9375V15H27.0625Z" fill="#FFFCFC"/>
<path d="M17.375 9.375H23" stroke="#FFFCFC" stroke-width="2" stroke-linecap="round"/>
<path d="M8 21.875V19.375" stroke="#FFFCFC" stroke-width="2" stroke-linecap="round"/>
<path d="M8 10.625V8.125" stroke="#FFFCFC" stroke-width="2" stroke-linecap="round"/>
<path d="M11.75 21.875V19.375" stroke="#FFFCFC" stroke-width="2" stroke-linecap="round"/>
<path d="M11.75 10.625V8.125" stroke="#FFFCFC" stroke-width="2" stroke-linecap="round"/>
<path d="M19.9801 22.5L19.3705 23.2122C19.7215 23.5126 20.2389 23.5126 20.5898 23.2122L19.9801 22.5ZM21.32 22.5872C21.7133 22.2505 21.7593 21.6588 21.4225 21.2654C21.0859 20.872 20.494 20.8261 20.1008 21.1628L21.32 22.5872ZM19.8596 21.1628C19.4663 20.8261 18.8745 20.872 18.5378 21.2654C18.2011 21.6588 18.247 22.2505 18.6404 22.5872L19.8596 21.1628ZM25.9865 20.794C26.287 21.2158 26.8724 21.314 27.294 21.0135C27.7158 20.713 27.814 20.1276 27.5135 19.706L25.9865 20.794ZM23.631 17.8125C21.239 17.8125 19.0426 19.4999 19.0426 21.875H20.9176C20.9176 20.7984 21.9904 19.6875 23.631 19.6875V17.8125ZM19.0426 21.875V22.5H20.9176V21.875H19.0426ZM20.5898 23.2122L21.32 22.5872L20.1008 21.1628L19.3705 21.7878L20.5898 23.2122ZM20.5898 21.7878L19.8596 21.1628L18.6404 22.5872L19.3705 23.2122L20.5898 21.7878ZM27.5135 19.706C26.6813 18.538 25.2275 17.8125 23.631 17.8125V19.6875C24.6764 19.6875 25.5369 20.163 25.9865 20.794L27.5135 19.706Z" fill="#FFFCFC"/>
<path d="M27.27 22.5L27.8796 21.7878C27.5286 21.4874 27.0112 21.4874 26.6604 21.7878L27.27 22.5ZM25.9301 22.4128C25.5369 22.7495 25.4908 23.3413 25.8276 23.7347C26.1642 24.128 26.7561 24.1739 27.1494 23.8373L25.9301 22.4128ZM27.3905 23.8373C27.7839 24.1739 28.3756 24.128 28.7123 23.7347C29.049 23.3413 29.0031 22.7495 28.6097 22.4128L27.3905 23.8373ZM21.2636 24.206C20.9631 23.7843 20.3777 23.686 19.9561 23.9865C19.5344 24.287 19.4361 24.8724 19.7366 25.294L21.2636 24.206ZM23.6191 27.1875C26.0111 27.1875 28.2075 25.5002 28.2075 23.125H26.3325C26.3325 24.2017 25.2597 25.3125 23.6191 25.3125V27.1875ZM28.2075 23.125V22.5H26.3325V23.125H28.2075ZM26.6604 21.7878L25.9301 22.4128L27.1494 23.8373L27.8796 23.2123L26.6604 21.7878ZM26.6604 23.2123L27.3905 23.8373L28.6097 22.4128L27.8796 21.7878L26.6604 23.2123ZM19.7366 25.294C20.5689 26.462 22.0226 27.1875 23.6191 27.1875V25.3125C22.5737 25.3125 21.7132 24.837 21.2636 24.206L19.7366 25.294Z" fill="#FFFCFC"/>
</svg>
