<svg width="36" height="36" viewBox="0 0 36 36" fill="none" xmlns="http://www.w3.org/2000/svg">
<g clip-path="url(#clip0_159_3363)">
<path d="M24.4825 16.0506C24.4321 16.0506 24.3824 16.0517 24.3326 16.0536C23.7256 14.7504 22.4311 13.9192 20.9806 13.9192C20.388 13.9192 19.8081 14.0606 19.2858 14.3307C18.673 13.0707 17.3729 12.2441 15.957 12.2441C13.9177 12.2441 12.2588 13.9033 12.2588 15.9429C12.2588 15.9793 12.2593 16.0156 12.2604 16.0523C12.2238 16.0509 12.1872 16.0504 12.1513 16.0504C10.1121 16.0504 8.45312 17.7093 8.45312 19.7486C8.45312 21.7326 10.0579 23.3946 12.0373 23.455C12.0496 23.4569 12.0622 23.4687 12.0753 23.4687H24.5582C24.571 23.4687 24.5839 23.4569 24.5962 23.4553C26.5756 23.3948 28.1807 21.7384 28.1807 19.754C28.1807 17.715 26.5217 16.0506 24.4825 16.0506Z" fill="url(#paint0_linear_159_3363)"/>
<path d="M33.3309 13.8984H24.8008C24.9774 14.1719 25.1434 14.2687 25.2938 14.474C26.939 14.7261 28.3358 15.7329 29.1265 17.1277C29.3163 16.9749 29.5542 16.8792 29.8161 16.8792C30.427 16.8792 30.9244 17.376 30.9244 17.9868C30.9244 18.5977 30.4273 19.0948 29.8161 19.0948C29.8019 19.0948 29.7891 19.091 29.7754 19.0904C29.8022 19.3067 29.8208 19.5364 29.8208 19.7595C29.8208 20.5919 29.619 21.2809 29.2687 22.1012H33.3309C34.6879 22.1012 35.8148 20.9755 35.8148 19.6184V16.3544C35.8148 14.9976 34.6879 13.8984 33.3309 13.8984ZM32.5538 19.0948C31.9429 19.0948 31.4458 18.5977 31.4458 17.9866C31.4458 17.3754 31.9426 16.8786 32.5538 16.8786C33.1649 16.8786 33.662 17.3754 33.662 17.9866C33.662 18.5977 33.1649 19.0948 32.5538 19.0948Z" fill="url(#paint1_linear_159_3363)"/>
<path d="M3.3015 13.8984C1.94444 13.8984 0.81543 14.9976 0.81543 16.3544V19.6187C0.81543 20.9758 1.94444 22.1015 3.3015 22.1015H7.36366C7.01339 21.2812 6.81187 20.5919 6.81187 19.7598C6.81187 17.2852 8.50443 15.1953 10.7928 14.593C10.8552 14.3551 10.9375 14.1719 11.0307 13.8984H3.3015ZM4.64298 19.6102C3.74775 19.6102 3.01932 18.8821 3.01932 17.9866C3.01932 17.0916 3.74748 16.3629 4.64298 16.3629C5.53848 16.3629 6.26664 17.0913 6.26664 17.9866C6.26664 18.8821 5.53821 19.6102 4.64298 19.6102Z" fill="url(#paint2_linear_159_3363)"/>
<path d="M15.9567 12.2441C15.9531 12.2441 15.9498 12.2447 15.9463 12.2447H15.9714C15.9665 12.2447 15.9616 12.2441 15.9567 12.2441Z" fill="url(#paint3_linear_159_3363)"/>
<path d="M33.3313 4.05469H3.3015C1.94444 4.05469 0.81543 5.16265 0.81543 6.51971V9.78398C0.81543 11.1408 1.94444 12.2577 3.3015 12.2577H12.1138C13.0858 11.164 14.4481 10.6166 15.9569 10.6166C17.419 10.6166 18.8056 11.164 19.7998 12.2577H33.3315C34.6886 12.2577 35.8154 11.1408 35.8154 9.78371V6.51971C35.8152 5.16265 34.6883 4.05469 33.3313 4.05469ZM4.64298 9.77523C3.74775 9.77523 3.01932 9.04707 3.01932 8.15157C3.01932 7.25607 3.74748 6.52791 4.64298 6.52791C5.53848 6.52791 6.26664 7.25607 6.26664 8.15157C6.26664 9.04707 5.53821 9.77523 4.64298 9.77523ZM25.1512 8.42965C25.1512 9.18488 24.5392 9.79683 23.784 9.79683H9.01849C8.26326 9.79683 7.65131 9.18488 7.65131 8.42965V7.88278C7.65131 7.12755 8.26326 6.51561 9.01849 6.51561H23.784C24.5392 6.51561 25.1512 7.12755 25.1512 7.88278V8.42965ZM27.0819 9.25953C26.4711 9.25953 25.9739 8.7627 25.9739 8.15157C25.9739 7.54044 26.4708 7.04334 27.0819 7.04334C27.693 7.04334 28.1899 7.54044 28.1899 8.15157C28.1899 8.7627 27.6928 9.25953 27.0819 9.25953ZM29.8165 9.25953C29.2057 9.25953 28.7086 8.7627 28.7086 8.15157C28.7086 7.54044 29.2054 7.04334 29.8165 7.04334C30.4277 7.04334 30.9248 7.54044 30.9248 8.15157C30.9248 8.7627 30.4274 9.25953 29.8165 9.25953ZM32.5542 9.25953C31.9433 9.25953 31.4462 8.7627 31.4462 8.15157C31.4462 7.54044 31.943 7.04334 32.5542 7.04334C33.1653 7.04334 33.6624 7.54044 33.6624 8.15157C33.6624 8.7627 33.1653 9.25953 32.5542 9.25953Z" fill="url(#paint4_linear_159_3363)"/>
<path d="M33.3313 23.7422H28.022C27.1276 24.5625 25.9696 25.0519 24.7014 25.1039C24.6535 25.1077 24.6057 25.1094 24.5578 25.1094H12.075C12.0274 25.1094 11.9795 25.1077 11.9319 25.1039C10.6635 25.0522 9.50493 24.5625 8.6108 23.7422H3.3015C1.94444 23.7422 0.81543 24.8244 0.81543 26.1815V29.4458C0.81543 30.8026 1.94444 31.9452 3.3015 31.9452H33.3313C34.6883 31.9452 35.8152 30.8026 35.8152 29.4455V26.1815C35.8152 24.8244 34.6883 23.7422 33.3313 23.7422ZM4.64298 29.437C3.74775 29.437 3.01932 28.7089 3.01932 27.8134C3.01932 26.9179 3.74748 26.1897 4.64298 26.1897C5.53848 26.1897 6.26664 26.9179 6.26664 27.8134C6.26664 28.7089 5.53821 29.437 4.64298 29.437ZM25.1512 28.1172C25.1512 28.8724 24.5392 29.4843 23.784 29.4843H9.01849C8.26326 29.4843 7.65131 28.8724 7.65131 28.1172V27.5703C7.65131 26.8151 8.26326 26.2031 9.01849 26.2031H23.784C24.5392 26.2031 25.1512 26.8151 25.1512 27.5703V28.1172ZM27.0819 28.9213C26.471 28.9213 25.9739 28.4245 25.9739 27.8134C25.9739 27.2022 26.4708 26.7054 27.0819 26.7054C27.693 26.7054 28.1899 27.2022 28.1899 27.8134C28.1899 28.4245 27.6928 28.9213 27.0819 28.9213ZM29.8165 28.9213C29.2057 28.9213 28.7086 28.4245 28.7086 27.8134C28.7086 27.2022 29.2054 26.7054 29.8165 26.7054C30.4277 26.7054 30.9248 27.2022 30.9248 27.8134C30.9248 28.4245 30.4274 28.9213 29.8165 28.9213ZM32.5542 28.9213C31.9433 28.9213 31.4462 28.4245 31.4462 27.8134C31.4462 27.2022 31.943 26.7054 32.5542 26.7054C33.1653 26.7054 33.6624 27.2022 33.6624 27.8134C33.6624 28.4245 33.1653 28.9213 32.5542 28.9213Z" fill="url(#paint5_linear_159_3363)"/>
</g>
<defs>
<linearGradient id="paint0_linear_159_3363" x1="12.6805" y1="14.1149" x2="16.1162" y2="22.4996" gradientUnits="userSpaceOnUse">
<stop stop-color="#1BABC3"/>
<stop offset="1" stop-color="#88E7F7"/>
</linearGradient>
<linearGradient id="paint1_linear_159_3363" x1="27.1609" y1="15.2656" x2="30.1417" y2="20.8231" gradientUnits="userSpaceOnUse">
<stop stop-color="#1BABC3"/>
<stop offset="1" stop-color="#88E7F7"/>
</linearGradient>
<linearGradient id="paint2_linear_159_3363" x1="3.00442" y1="15.2656" x2="6.10585" y2="20.6286" gradientUnits="userSpaceOnUse">
<stop stop-color="#1BABC3"/>
<stop offset="1" stop-color="#88E7F7"/>
</linearGradient>
<linearGradient id="paint3_linear_159_3363" x1="15.9517" y1="12.2442" x2="15.9517" y2="12.2447" gradientUnits="userSpaceOnUse">
<stop stop-color="#1BABC3"/>
<stop offset="1" stop-color="#88E7F7"/>
</linearGradient>
<linearGradient id="paint4_linear_159_3363" x1="8.31543" y1="5.42186" x2="9.4899" y2="12.3802" gradientUnits="userSpaceOnUse">
<stop stop-color="#1BABC3"/>
<stop offset="1" stop-color="#88E7F7"/>
</linearGradient>
<linearGradient id="paint5_linear_159_3363" x1="8.31537" y1="25.1094" x2="9.48985" y2="32.0677" gradientUnits="userSpaceOnUse">
<stop stop-color="#1BABC3"/>
<stop offset="1" stop-color="#88E7F7"/>
</linearGradient>
<clipPath id="clip0_159_3363">
<rect width="35" height="35" fill="white" transform="translate(0.81543 0.5)"/>
</clipPath>
</defs>
</svg>
