<svg width="60" height="61" viewBox="0 0 60 61" fill="none" xmlns="http://www.w3.org/2000/svg">
<path d="M25 9.625C26.0355 9.625 26.875 8.78553 26.875 7.75C26.875 6.71448 26.0355 5.875 25 5.875V9.625ZM35 5.875C33.9645 5.875 33.125 6.71448 33.125 7.75C33.125 8.78553 33.9645 9.625 35 9.625V5.875ZM32.5 54.625C33.5355 54.625 34.375 53.7855 34.375 52.75C34.375 51.7145 33.5355 50.875 32.5 50.875V54.625ZM53.125 32.75C53.125 33.7855 53.9645 34.625 55 34.625C56.0355 34.625 56.875 33.7855 56.875 32.75H53.125ZM35 32.125C36.0355 32.125 36.875 31.2855 36.875 30.25C36.875 29.2145 36.0355 28.375 35 28.375V32.125ZM45 28.375C43.9645 28.375 43.125 29.2145 43.125 30.25C43.125 31.2855 43.9645 32.125 45 32.125V28.375ZM6.875 32.75V30.25H3.125V32.75H6.875ZM6.875 30.25V27.75H3.125V30.25H6.875ZM32.5 50.875H25V54.625H32.5V50.875ZM53.125 27.75V30.25H56.875V27.75H53.125ZM3.125 32.75C3.125 37.411 3.12103 41.0955 3.50783 43.9725C3.9019 46.9035 4.7322 49.276 6.6031 51.147L9.25475 48.4952C8.19673 47.4372 7.56255 45.988 7.2244 43.473C6.87898 40.9038 6.875 37.517 6.875 32.75H3.125ZM25 50.875C20.233 50.875 16.8463 50.871 14.2771 50.5255C11.7619 50.1875 10.3128 49.5532 9.25475 48.4952L6.6031 51.147C8.47403 53.0178 10.8464 53.848 13.7775 54.2423C16.6546 54.629 20.339 54.625 25 54.625V50.875ZM35 9.625C39.767 9.625 43.1538 9.62898 45.723 9.9744C48.238 10.3126 49.6872 10.9467 50.7452 12.0048L53.397 9.3531C51.526 7.4822 49.1535 6.6519 46.2225 6.25783C43.3455 5.87103 39.661 5.875 35 5.875V9.625ZM56.875 27.75C56.875 23.089 56.879 19.4046 56.4923 16.5275C56.098 13.5964 55.2678 11.224 53.397 9.3531L50.7452 12.0048C51.8032 13.0628 52.4375 14.5119 52.7755 17.0271C53.121 19.5963 53.125 22.983 53.125 27.75H56.875ZM25 5.875C20.339 5.875 16.6546 5.87103 13.7775 6.25783C10.8464 6.6519 8.47403 7.4822 6.6031 9.3531L9.25475 12.0048C10.3128 10.9467 11.7619 10.3126 14.2771 9.9744C16.8463 9.62898 20.233 9.625 25 9.625V5.875ZM6.875 27.75C6.875 22.983 6.87898 19.5963 7.2244 17.0271C7.56255 14.5119 8.19673 13.0628 9.25475 12.0048L6.6031 9.3531C4.7322 11.224 3.9019 13.5964 3.50783 16.5275C3.12103 19.4046 3.125 23.089 3.125 27.75H6.875ZM53.125 30.25V32.75H56.875V30.25H53.125ZM5 32.125H35V28.375H5V32.125ZM45 32.125H55V28.375H45V32.125Z" fill="url(#paint0_linear_102_2474)"/>
<path d="M33.75 19H45" stroke="url(#paint1_linear_102_2474)" stroke-width="3.75" stroke-linecap="round"/>
<path d="M15 44V39" stroke="url(#paint2_linear_102_2474)" stroke-width="3.75" stroke-linecap="round"/>
<path d="M15 21.5V16.5" stroke="url(#paint3_linear_102_2474)" stroke-width="3.75" stroke-linecap="round"/>
<path d="M22.5 44V39" stroke="url(#paint4_linear_102_2474)" stroke-width="3.75" stroke-linecap="round"/>
<path d="M22.5 21.5V16.5" stroke="url(#paint5_linear_102_2474)" stroke-width="3.75" stroke-linecap="round"/>
<path d="M48.3332 42.463C48.8547 42.268 49.4155 42.1617 50 42.1617C50.5728 42.1617 51.1233 42.2637 51.6358 42.4515M51.6358 42.4515C53.5938 43.169 55 45.1385 55 47.456C55 50.3798 52.7615 52.75 50 52.75H41.25C39.179 52.75 37.5 50.9723 37.5 48.7795C37.5 46.5865 39.179 44.8087 41.25 44.8087C41.4985 44.8087 41.7415 44.8345 41.9768 44.8833M51.6358 42.4515C51.3575 39.8065 49.239 37.75 46.6668 37.75C43.9053 37.75 41.6668 40.1202 41.6668 43.044C41.6668 43.6907 41.7763 44.3105 41.9768 44.8833M41.9768 44.8833C42.4705 44.986 42.9295 45.1912 43.3332 45.4775" stroke="url(#paint6_linear_102_2474)" stroke-width="3.75" stroke-linecap="round"/>
<defs>
<linearGradient id="paint0_linear_102_2474" x1="14.6429" y1="14" x2="34.1152" y2="43.812" gradientUnits="userSpaceOnUse">
<stop stop-color="#1BABC3"/>
<stop offset="1" stop-color="#88E7F7"/>
</linearGradient>
<linearGradient id="paint1_linear_102_2474" x1="36.1607" y1="19.1667" x2="36.2163" y2="20.0355" gradientUnits="userSpaceOnUse">
<stop stop-color="#1BABC3"/>
<stop offset="1" stop-color="#88E7F7"/>
</linearGradient>
<linearGradient id="paint2_linear_102_2474" x1="15.2143" y1="39.8333" x2="16.339" y2="40.1457" gradientUnits="userSpaceOnUse">
<stop stop-color="#1BABC3"/>
<stop offset="1" stop-color="#88E7F7"/>
</linearGradient>
<linearGradient id="paint3_linear_102_2474" x1="15.2143" y1="17.3333" x2="16.339" y2="17.6457" gradientUnits="userSpaceOnUse">
<stop stop-color="#1BABC3"/>
<stop offset="1" stop-color="#88E7F7"/>
</linearGradient>
<linearGradient id="paint4_linear_102_2474" x1="22.7143" y1="39.8333" x2="23.839" y2="40.1457" gradientUnits="userSpaceOnUse">
<stop stop-color="#1BABC3"/>
<stop offset="1" stop-color="#88E7F7"/>
</linearGradient>
<linearGradient id="paint5_linear_102_2474" x1="22.7143" y1="17.3333" x2="23.839" y2="17.6457" gradientUnits="userSpaceOnUse">
<stop stop-color="#1BABC3"/>
<stop offset="1" stop-color="#88E7F7"/>
</linearGradient>
<linearGradient id="paint6_linear_102_2474" x1="41.25" y1="40.25" x2="47.0992" y2="49.7258" gradientUnits="userSpaceOnUse">
<stop stop-color="#1BABC3"/>
<stop offset="1" stop-color="#88E7F7"/>
</linearGradient>
</defs>
</svg>
