<svg width="19" height="19" viewBox="0 0 19 19" fill="none" xmlns="http://www.w3.org/2000/svg">
<path d="M7.55255 4.12756C8.33916 2.16656 8.73246 1.18607 9.40878 1.18607C10.0851 1.18607 10.4784 2.16657 11.265 4.12757L11.3016 4.21888C11.746 5.32675 11.9682 5.88068 12.4211 6.21737C12.8739 6.55406 13.4684 6.6073 14.6573 6.71377L14.8722 6.73302C16.8181 6.90729 17.791 6.99442 17.9991 7.6134C18.2073 8.23239 17.4848 8.88973 16.0398 10.2044L15.5575 10.6432C14.826 11.3087 14.4602 11.6415 14.2897 12.0776C14.2579 12.159 14.2315 12.2423 14.2106 12.3271C14.0985 12.7818 14.2057 13.2645 14.4199 14.23L14.4865 14.5305C14.8802 16.3048 15.077 17.192 14.7334 17.5747C14.6049 17.7177 14.438 17.8206 14.2526 17.8712C13.7564 18.0066 13.0519 17.4326 11.643 16.2845C10.7178 15.5306 10.2552 15.1536 9.72413 15.0688C9.51522 15.0355 9.30235 15.0355 9.09344 15.0688C8.56234 15.1536 8.09975 15.5306 7.17458 16.2845C5.76563 17.4326 5.06115 18.0066 4.56495 17.8712C4.37953 17.8206 4.21262 17.7177 4.0842 17.5747C3.74052 17.192 3.93736 16.3048 4.33103 14.5305L4.39771 14.23C4.61192 13.2645 4.71902 12.7818 4.60696 12.3271C4.58606 12.2423 4.55963 12.159 4.52783 12.0776C4.35735 11.6415 3.9916 11.3087 3.26009 10.6432L2.77781 10.2044C1.33277 8.88973 0.610245 8.23239 0.818424 7.6134C1.0266 6.99442 1.99951 6.90729 3.94532 6.73302L4.16026 6.71377C5.34918 6.6073 5.94363 6.55406 6.39648 6.21737C6.84933 5.88068 7.07153 5.32675 7.51592 4.21888L7.55255 4.12756Z" stroke="url(#paint0_linear_645_419)" stroke-width="1.5"/>
<defs>
<linearGradient id="paint0_linear_645_419" x1="4.47988" y1="3.97016" x2="11.3176" y2="13.7755" gradientUnits="userSpaceOnUse">
<stop stop-color="#1BABC3"/>
<stop offset="1" stop-color="#88E7F7"/>
</linearGradient>
</defs>
</svg>
