<svg width="25" height="24" viewBox="0 0 25 24" fill="none" xmlns="http://www.w3.org/2000/svg">
<path d="M17.5 4H18.002C19.2134 4 19.819 4 20.2834 4.232C20.7095 4.44495 21.0551 4.79048 21.268 5.21665C21.5 5.68096 21.5 6.28664 21.5 7.498V8M17.5 20H18.002C19.2134 20 19.819 20 20.2834 19.768C20.7095 19.5551 21.0551 19.2095 21.268 18.7834C21.5 18.319 21.5 17.7134 21.5 16.502V16M7.5 4H6.998C5.78664 4 5.18096 4 4.71665 4.232C4.29048 4.44495 3.94495 4.79048 3.732 5.21665C3.5 5.68096 3.5 6.28664 3.5 7.498V8M7.5 20H6.998C5.78664 20 5.18096 20 4.71665 19.768C4.29048 19.5551 3.94495 19.2095 3.732 18.7834C3.5 18.319 3.5 17.7134 3.5 16.502V16" stroke="white" stroke-width="2" stroke-linecap="round"/>
<path d="M8.12584 17.0695C8.5447 16.4649 9.16228 15.9421 9.93355 15.571C10.7049 15.1999 11.5906 15 12.5 15C13.4094 15 14.2951 15.1999 15.0664 15.571C15.8377 15.9421 16.4553 16.4649 16.8742 17.0695" stroke="white" stroke-width="2" stroke-linecap="round"/>
<circle cx="12.5" cy="9" r="3" stroke="white" stroke-width="2" stroke-linecap="round"/>
</svg>
