<svg width="23" height="28" viewBox="0 0 23 28" fill="none" xmlns="http://www.w3.org/2000/svg">
<path d="M10.4962 6.86946C10.4729 6.93427 10.3649 6.92437 10.3034 6.94327C10.2485 6.97118 10.2038 7.01979 10.1405 7.01979C10.0828 7.01979 9.98964 6.99728 9.98219 6.94327C9.97101 6.86946 10.0846 6.79385 10.1563 6.79385C10.2029 6.77224 10.2569 6.76054 10.3137 6.76054C10.3658 6.76054 10.4152 6.77045 10.4599 6.78935L10.4571 6.78845C10.4776 6.79655 10.4925 6.81545 10.4925 6.83796C10.4925 6.84066 10.4925 6.84246 10.4915 6.84516V6.86766H10.4953L10.4962 6.86946ZM11.1368 6.86946V6.84516C11.1294 6.82265 11.1517 6.79835 11.1704 6.78935C11.2132 6.77135 11.2635 6.76054 11.3166 6.76054C11.3734 6.76054 11.4274 6.77315 11.4749 6.79475L11.473 6.79385C11.5466 6.79385 11.6592 6.86946 11.6471 6.94597C11.6406 7.00088 11.5484 7.01979 11.4898 7.01979C11.4255 7.01979 11.3827 6.97118 11.3259 6.94327C11.2653 6.92257 11.1564 6.93427 11.1359 6.87036L11.1368 6.86946ZM12.3958 8.64996C11.9004 8.95331 11.3147 9.16664 10.6871 9.24946L10.6647 9.25216C10.1004 9.22065 9.58737 9.02892 9.16834 8.72287L9.17486 8.72737C8.99607 8.57705 8.84895 8.42582 8.74093 8.35021C8.55004 8.19988 8.57332 7.97575 8.65526 7.97575C8.7819 7.99375 8.80518 8.12607 8.88713 8.20078C8.99887 8.2746 9.13761 8.42582 9.30615 8.57525C9.67583 8.8705 10.1433 9.06223 10.6564 9.10003L10.6647 9.10093C11.2737 9.04963 11.8278 8.86059 12.3064 8.56804L12.2915 8.57705C12.5187 8.42492 12.8092 8.20168 13.0457 8.05136C13.2273 7.89833 13.2189 7.75071 13.3707 7.75071C13.5197 7.76871 13.4108 7.90103 13.1994 8.12427C12.9703 8.2935 12.7087 8.46723 12.4377 8.62836L12.3967 8.65086L12.3958 8.64996ZM4.06551 18.8568H4.07668C4.14093 18.8568 4.20425 18.8631 4.26571 18.8739L4.25919 18.873C4.76575 18.999 5.18291 19.3032 5.44457 19.711L5.44923 19.7191L6.50798 21.5905L6.5117 21.5941C6.93725 22.2899 7.39445 22.8921 7.90567 23.4475L7.89542 23.4358C8.3517 23.9039 8.65899 24.5124 8.74186 25.1875L8.74372 25.2019V25.2091C8.73255 25.9445 8.17291 26.5512 7.44381 26.6638L7.43542 26.6647C7.24919 26.6926 7.03316 26.7079 6.81433 26.7079C6.01632 26.7079 5.26951 26.4981 4.62887 26.1318L4.64842 26.1426C3.66789 25.7456 2.53 25.4999 1.3381 25.4657H1.32413C0.977733 25.4432 0.676032 25.2721 0.485142 25.0192L0.483279 25.0165C0.432996 24.8599 0.40413 24.6798 0.40413 24.4926C0.40413 24.1775 0.486073 23.8814 0.631336 23.6231L0.62668 23.633V23.6285L0.629474 23.6249C0.667652 23.4556 0.69 23.2603 0.69 23.0605C0.69 22.8138 0.656478 22.5753 0.593158 22.3484L0.597814 22.3673C0.559636 22.2323 0.537288 22.0766 0.537288 21.9155C0.537288 21.6976 0.577328 21.4897 0.651822 21.2971L0.648097 21.3097C0.834332 20.9343 1.10903 20.8596 1.45077 20.7102C1.85862 20.5904 2.2134 20.4095 2.52255 20.1764L2.5151 20.1818H2.51696V20.1791C2.81494 19.8775 3.0347 19.5031 3.29449 19.2366C3.47607 19.0125 3.75263 18.8676 4.06457 18.8586H4.06644L4.06551 18.8568ZM16.6494 18.8019C16.6485 18.8172 16.6485 18.8361 16.6485 18.855C16.6485 19.5238 17.0666 20.0981 17.6644 20.3474L17.6755 20.3519C17.7202 20.3546 17.7724 20.3564 17.8245 20.3564C18.5983 20.3564 19.2911 20.0225 19.7567 19.495L19.7595 19.4914L20.0053 19.4806C20.0547 19.4734 20.1115 19.4698 20.1692 19.4698C20.4868 19.4698 20.7764 19.5886 20.9915 19.783L20.9905 19.7821L20.9943 19.7857C21.2261 20.0567 21.3872 20.3915 21.4477 20.7597L21.4496 20.7714C21.5008 21.226 21.6712 21.6355 21.931 21.9776L21.9264 21.9704C22.3137 22.2908 22.5828 22.7355 22.6648 23.2405L22.6666 23.2522L22.6704 23.2441V23.2639L22.6666 23.2504C22.6489 23.5447 22.4515 23.696 22.0875 23.9201C20.9849 24.3675 20.0379 24.9625 19.2222 25.6916L19.2287 25.6862C18.6626 26.3991 17.8311 26.8915 16.8794 27.0238L16.8598 27.0256C16.7909 27.0346 16.7108 27.04 16.6298 27.04C15.9147 27.04 15.3001 26.6224 15.0319 26.0265L15.0273 26.0157L15.0217 26.0121C14.9351 25.7546 14.8857 25.4585 14.8857 25.1515C14.8857 24.777 14.9593 24.4197 15.0943 24.0911L15.0869 24.1109C15.3048 23.5096 15.4919 22.7913 15.6158 22.0514L15.626 21.9767C15.6409 21.2458 15.7229 20.5427 15.8663 19.8613L15.8532 19.936C15.9324 19.4698 16.208 19.0773 16.5926 18.8334L16.5991 18.8298L16.6513 18.8055L16.6494 18.8019ZM14.1064 8.72557C14.6651 10.6582 15.3532 12.328 16.1987 13.9077L16.1251 13.7574C16.696 14.7386 17.1401 15.8773 17.3943 17.0835L17.4074 17.1591C17.4157 17.1591 17.426 17.1591 17.4362 17.1591C17.6383 17.1591 17.8338 17.1852 18.0201 17.2347L18.0042 17.2311C18.1067 16.8755 18.1653 16.4678 18.1653 16.0465C18.1653 14.7629 17.6187 13.6017 16.7379 12.7708L16.7369 12.7699C16.4808 12.5449 16.4669 12.3928 16.5935 12.3928C17.4977 13.2119 18.1663 14.2633 18.4978 15.4479L18.5089 15.4938C18.5918 15.7899 18.6393 16.1302 18.6393 16.4813C18.6393 16.7972 18.6011 17.1051 18.5285 17.3994L18.5341 17.3724C18.603 17.4066 18.6831 17.4327 18.7678 17.4471L18.7734 17.448C19.9746 18.0484 20.4179 18.503 20.2046 19.1772V19.1286C20.1348 19.125 20.0649 19.1286 19.9951 19.1286H19.9765C20.1525 18.6029 19.7651 18.2006 18.7371 17.7514C17.6728 17.3013 16.8217 17.3733 16.6773 18.2744C16.6671 18.3185 16.6596 18.3698 16.6568 18.4229V18.4256C16.5889 18.4526 16.5079 18.4778 16.424 18.4958L16.4138 18.4976C15.9408 18.8 15.6037 19.2708 15.4929 19.8199L15.491 19.8325C15.3532 20.4581 15.2666 21.1827 15.2526 21.9236V21.9344V21.938C15.1679 22.5114 15.0385 23.0245 14.8634 23.5159L14.882 23.4565C13.9667 24.1802 12.786 24.6177 11.4981 24.6177C10.4459 24.6177 9.46445 24.3252 8.63664 23.8193L8.65899 23.8319C8.52304 23.6042 8.36753 23.407 8.19061 23.2315L8.19154 23.2324C8.10121 23.0884 7.99506 22.965 7.87308 22.8588L7.87121 22.8579C8.06397 22.8579 8.2502 22.83 8.42619 22.7787L8.41223 22.7823C8.57984 22.7058 8.70834 22.5735 8.77632 22.4115L8.77818 22.4069C8.79494 22.3232 8.80518 22.2278 8.80518 22.1297C8.80518 21.7291 8.64223 21.3664 8.37591 21.0981L8.37684 21.099C7.80045 20.414 7.11138 19.8433 6.33198 19.4067L6.2966 19.3887C5.67178 19.0395 5.19874 18.4931 4.96502 17.8387L4.9585 17.8189C4.8719 17.5326 4.82162 17.2032 4.82162 16.8629C4.82162 16.5452 4.86538 16.2373 4.9464 15.9439L4.94081 15.9682C5.29186 14.7854 5.79842 13.7529 6.44931 12.8213L6.42324 12.86C6.54802 12.787 6.46607 13.0121 5.94834 13.9554C5.50696 14.5972 5.24344 15.3867 5.24344 16.2355C5.24344 16.9916 5.45202 17.7001 5.81704 18.3113L5.80587 18.2915C5.85429 17.1132 6.12713 16.0078 6.58247 14.9978L6.55919 15.0563C7.54158 13.3442 8.28559 11.3558 8.67761 9.24856L8.69623 9.13064C8.7521 9.17115 8.94858 9.28276 9.03239 9.35748C9.28567 9.5069 9.4747 9.73194 9.71866 9.88046C9.96729 10.1145 10.3081 10.2585 10.6824 10.2585C10.702 10.2585 10.7215 10.2585 10.7411 10.2576H10.7383C10.7839 10.2612 10.8258 10.2648 10.8659 10.2648C11.2933 10.2567 11.6918 10.146 12.0382 9.95698L12.0261 9.96328C12.3632 9.81295 12.6314 9.58791 12.8874 9.5132H12.893C13.3912 9.38268 13.8084 9.10453 14.1036 8.73097L14.1073 8.72557H14.1064ZM10.8482 6.31587C10.851 6.31587 10.8538 6.31587 10.8566 6.31587C11.3864 6.31587 11.8753 6.4842 12.2691 6.76864L12.2626 6.76414C12.6146 6.97478 13.0206 7.15391 13.4499 7.28083L13.4871 7.28983H13.4908C13.7199 7.38885 13.9089 7.54277 14.044 7.73451L14.0468 7.73901V7.59138C14.0896 7.6742 14.1157 7.77231 14.1157 7.87583C14.1157 7.96404 14.097 8.04776 14.0645 8.12427L14.0663 8.11977C13.7981 8.57615 13.3633 8.9155 12.8437 9.06313L12.8288 9.06673V9.06853C12.5168 9.22065 12.2459 9.44299 11.9274 9.59152C11.6015 9.78055 11.2095 9.89217 10.7895 9.89217C10.7755 9.89217 10.7616 9.89217 10.7476 9.89217H10.7495C10.729 9.89307 10.7048 9.89397 10.6806 9.89397C10.5185 9.89397 10.3621 9.86606 10.2187 9.81385L10.228 9.81655C10.08 9.73824 9.95798 9.66443 9.83972 9.58521L9.85275 9.59422C9.64138 9.41509 9.40858 9.24316 9.16461 9.08563L9.1404 9.07123V9.06583H9.13482C8.78563 8.8867 8.51093 8.61215 8.34146 8.2773L8.3368 8.26649C8.31166 8.20618 8.29769 8.13597 8.29769 8.06306C8.29769 7.86683 8.40198 7.694 8.55935 7.59318L8.56121 7.59228C8.82194 7.44016 9.00352 7.28713 9.12364 7.21422C9.2447 7.13141 9.29032 7.0999 9.3285 7.06659H9.33036V7.06299C9.57992 6.75784 9.91049 6.5238 10.2913 6.39148L10.3062 6.38698C10.4683 6.34197 10.6545 6.31587 10.8472 6.31407L10.8482 6.31587ZM9.25401 4.39675H9.29591C9.47097 4.40035 9.63206 4.45706 9.76243 4.54977L9.76057 4.54797C9.92725 4.6911 10.0632 4.86483 10.1563 5.06106L10.16 5.07096C10.2653 5.2915 10.3304 5.54804 10.3379 5.81809V5.82079V5.82529C10.3416 5.86669 10.3435 5.9144 10.3435 5.96211C10.3435 6.01882 10.3407 6.07553 10.3351 6.13134L10.336 6.12414V6.21415C10.3016 6.22225 10.2709 6.23396 10.2392 6.24116C10.0613 6.31227 9.91142 6.38788 9.76895 6.4734L9.78198 6.46619C9.78943 6.41669 9.79316 6.35998 9.79316 6.30237C9.79316 6.25466 9.79036 6.20695 9.78478 6.16014L9.78571 6.16554V6.14844C9.76895 6.00982 9.73542 5.8829 9.68607 5.76318L9.6898 5.77308C9.65162 5.65426 9.58457 5.55344 9.49704 5.47333C9.44583 5.42832 9.37785 5.40042 9.30243 5.40042C9.29591 5.40042 9.28939 5.40042 9.28287 5.40132H9.28381H9.25959C9.16368 5.41122 9.0836 5.46883 9.04356 5.54804L9.04263 5.54984C8.97093 5.63355 8.92158 5.73707 8.90296 5.85049V5.85409C8.88154 5.93151 8.87036 6.02062 8.87036 6.11243C8.87036 6.15204 8.87223 6.19165 8.87688 6.23036V6.22585V6.24296C8.89178 6.38158 8.9253 6.5094 8.97372 6.62822L8.97 6.61832C9.00911 6.73714 9.07522 6.83886 9.16275 6.91987C9.17393 6.93067 9.18696 6.93967 9.20186 6.94688H9.20279C9.12551 6.99458 9.05846 7.04499 8.997 7.1008L8.99794 7.0999C8.95603 7.13591 8.90482 7.16291 8.84802 7.17551L8.84522 7.17641C8.73069 7.04409 8.62453 6.89557 8.53328 6.73894L8.52583 6.72454C8.42061 6.504 8.35542 6.24836 8.34518 5.97741V5.97381C8.34146 5.93061 8.33959 5.8802 8.33959 5.82889C8.33959 5.61195 8.37591 5.40312 8.44202 5.20779L8.4383 5.22219C8.50721 4.98995 8.61988 4.78921 8.7698 4.61819L8.76793 4.62089C8.88619 4.48586 9.05939 4.40035 9.25401 4.39585H9.25494L9.25401 4.39675ZM12.7012 4.33014H12.7161C12.717 4.33014 12.718 4.33014 12.7198 4.33014C12.9759 4.33014 13.2106 4.41385 13.3987 4.55428L13.3959 4.55247C13.6091 4.7118 13.7804 4.91253 13.9006 5.14207L13.9052 5.15198C14.0179 5.39142 14.0877 5.66956 14.098 5.96301V5.96661C14.098 5.94411 14.1045 5.9216 14.1045 5.8991V6.01702L14.0998 5.99362L14.0952 5.96661C14.0924 6.25466 14.0291 6.5265 13.9155 6.77405L13.9211 6.76144C13.8633 6.90817 13.7795 7.03419 13.6734 7.13861C13.6454 7.1224 13.611 7.1071 13.5765 7.0936L13.5709 7.0918C13.4452 7.05399 13.3353 7.00268 13.2357 6.93967L13.2404 6.94237C13.1687 6.91357 13.083 6.88836 12.9945 6.86946L12.9843 6.86766C13.0597 6.79925 13.1296 6.72634 13.1938 6.64892L13.1975 6.64442C13.2562 6.5112 13.2925 6.35728 13.3 6.19525V6.19255V6.17004C13.3 6.16284 13.3 6.15564 13.3 6.14754C13.3 5.99452 13.2739 5.84779 13.2255 5.71097L13.2283 5.72087C13.1696 5.57775 13.0979 5.45443 13.0122 5.34191L13.016 5.34641C12.9349 5.26719 12.8279 5.21319 12.7077 5.19788H12.7049H12.6863C12.6854 5.19788 12.6835 5.19788 12.6826 5.19788C12.5597 5.19788 12.4498 5.25639 12.3828 5.34551L12.3818 5.34641C12.2738 5.44812 12.1919 5.57415 12.1453 5.71547L12.1434 5.72177C12.0848 5.85409 12.0466 6.00802 12.0391 6.16824V6.17095V6.19255C12.041 6.30057 12.0494 6.40498 12.0643 6.5067L12.0624 6.4932C11.838 6.41759 11.5531 6.34107 11.3557 6.26636C11.3445 6.20065 11.337 6.12324 11.3352 6.04402V6.04132V6.01882C11.3343 6.00082 11.3343 5.98011 11.3343 5.95941C11.3343 5.66776 11.3985 5.39141 11.5149 5.14207L11.5093 5.15468C11.608 4.90353 11.7821 4.6974 12.0047 4.55788L12.0094 4.55518C12.1993 4.41475 12.4405 4.33014 12.7012 4.33014ZM12.0857 0.5C11.9051 0.5 11.7188 0.509002 11.527 0.523404C6.60947 0.897866 7.91405 5.9306 7.83862 7.60758C7.79206 8.8912 7.34138 10.0641 6.60482 11.021L6.61692 11.0048C5.30676 12.4468 4.23777 14.1319 3.49656 15.9763L3.45652 16.0906C3.21627 16.7072 3.0766 17.4192 3.0766 18.1627C3.0766 18.4193 3.09336 18.6722 3.12502 18.9198L3.12223 18.8901C3.07008 18.9315 3.02632 18.9819 2.99559 19.0395L2.99466 19.0422C2.69202 19.3437 2.47134 19.7173 2.22271 19.9855C1.95919 20.1809 1.65004 20.3348 1.31482 20.4302L1.29526 20.4347C0.863198 20.5598 0.511215 20.8326 0.294251 21.1917L0.289595 21.1999C0.192753 21.3907 0.135951 21.6148 0.135951 21.8525C0.135951 21.8615 0.135951 21.8696 0.135951 21.8786C0.137814 22.0928 0.160162 22.2998 0.203927 22.5015L0.200202 22.4808C0.252348 22.6779 0.282146 22.9047 0.282146 23.1379C0.282146 23.2909 0.269109 23.4412 0.243968 23.5879L0.24583 23.5717C0.0903238 23.8535 0 24.1883 0 24.5439C0 24.7941 0.0446964 25.0336 0.127571 25.2559L0.122915 25.2415C0.377125 25.5908 0.7617 25.8374 1.2068 25.9157L1.21704 25.9175C2.40336 26.0139 3.49935 26.2533 4.53296 26.6197L4.44543 26.5926C5.09538 26.9662 5.8785 27.1867 6.71376 27.1867C6.98753 27.1867 7.25571 27.1633 7.51644 27.1174L7.48943 27.121C8.11053 26.9851 8.61708 26.5935 8.88992 26.0688L8.89551 26.0571C9.57899 26.0535 10.3267 25.7546 11.5251 25.6817C12.3381 25.6169 13.3568 25.9823 14.5235 25.9067C14.558 26.0499 14.6036 26.175 14.6613 26.2929L14.6557 26.2812L14.6595 26.2848C15.017 27.0085 15.7676 27.5 16.6373 27.5C16.7127 27.5 16.7872 27.4964 16.8608 27.4892L16.8515 27.4901C17.9232 27.3371 18.8432 26.7988 19.4708 26.0292L19.4774 26.0211C20.2623 25.3297 21.1786 24.7599 22.1824 24.3531L22.2448 24.3306C22.6471 24.1586 22.9357 23.804 22.9991 23.3773L23 23.371C22.9451 22.7463 22.635 22.2017 22.1731 21.8264L22.1694 21.8237V21.7147L22.1657 21.7111C21.9664 21.4141 21.8267 21.0612 21.7736 20.6832L21.7718 20.6697C21.7224 20.2079 21.5129 19.8001 21.1991 19.4932H21.1954C21.1265 19.4329 21.052 19.4176 20.9766 19.341C20.9151 19.2987 20.8387 19.2726 20.7559 19.269C20.9374 18.7271 21.0417 18.1042 21.0417 17.457C21.0417 16.6109 20.862 15.8053 20.538 15.0743L20.5538 15.1139C19.8983 13.6089 19.0462 12.3136 18.0098 11.1812L18.0229 11.1965C16.9939 10.2225 16.3207 8.9002 16.2089 7.42755L16.208 7.40865C16.2387 4.98815 16.4827 0.509902 12.0838 0.503601L12.0857 0.5Z" fill="white"/>
</svg>
