<svg width="33" height="33" viewBox="0 0 33 33" fill="none" xmlns="http://www.w3.org/2000/svg">
<path d="M3.06265 6.63867H29.9239C31.6239 6.63867 33 8.01475 33 9.71476V19.9681C33 21.6681 31.6239 23.0442 29.9239 23.0442H20.2911L21.6133 26.282L15.7985 23.0442H3.07606C1.37617 23.0442 9.90096e-05 21.6681 9.90096e-05 19.9681V9.71476C-0.0134361 8.02828 1.36251 6.63867 3.06265 6.63867Z" fill="white"/>
<path d="M1.87931 9.44237C2.06713 9.1874 2.34879 9.05334 2.72442 9.02652C3.40865 8.97277 3.79769 9.29465 3.89154 9.99229C4.30739 12.796 4.76346 15.1705 5.24634 17.1155L8.18411 11.5216C8.4525 11.0118 8.78791 10.7436 9.19036 10.7167C9.78062 10.6765 10.1427 11.052 10.2903 11.8435C10.6257 13.6276 11.055 15.1435 11.5647 16.4313C11.9135 13.024 12.5038 10.5691 13.3355 9.05334C13.5366 8.6777 13.8318 8.48989 14.2208 8.46294C14.5294 8.43626 14.8111 8.5301 15.0659 8.73133C15.3208 8.93255 15.4549 9.1874 15.4818 9.496C15.4952 9.73744 15.4549 9.93866 15.3477 10.1399C14.8245 11.1058 14.3951 12.729 14.0464 14.9825C13.7111 17.1691 13.5903 18.8729 13.6708 20.0936C13.6977 20.4288 13.6439 20.724 13.5099 20.979C13.3487 21.274 13.1074 21.435 12.7988 21.4619C12.45 21.4887 12.0879 21.3278 11.7391 20.9656C10.4915 19.6911 9.49883 17.7862 8.7745 15.2509C7.90245 16.9679 7.25857 18.2557 6.84272 19.1142C6.05123 20.6301 5.38053 21.4082 4.81708 21.4484C4.45486 21.4753 4.14638 21.1667 3.87813 20.5229C3.19402 18.7655 2.45616 15.3715 1.66481 10.3411C1.61106 9.99229 1.69149 9.68369 1.87931 9.44237ZM30.7074 11.5484C30.2245 10.7033 29.5135 10.1936 28.5611 9.99229C28.3061 9.93866 28.0648 9.91185 27.8366 9.91185C26.5489 9.91185 25.5025 10.5826 24.6842 11.9241C23.9866 13.0643 23.6379 14.3252 23.6379 15.707C23.6379 16.7399 23.8525 17.6252 24.2818 18.3631C24.7647 19.2082 25.4757 19.7179 26.4281 19.9191C26.6829 19.9729 26.9244 19.9997 27.1525 19.9997C28.4537 19.9997 29.5 19.329 30.3049 17.9874C31.0025 16.8337 31.3513 15.5728 31.3513 14.1912C31.3647 13.1448 31.1366 12.2728 30.7074 11.5484ZM29.0172 15.2643C28.8294 16.1496 28.4939 16.8069 27.9975 17.2496C27.6086 17.5984 27.2464 17.7459 26.9111 17.6788C26.5891 17.6118 26.3207 17.3301 26.1196 16.8069C25.9585 16.3911 25.8782 15.9752 25.8782 15.5862C25.8782 15.2509 25.905 14.9155 25.972 14.607C26.0928 14.057 26.3208 13.5203 26.6829 13.0106C27.1257 12.3532 27.5952 12.0851 28.0781 12.1789C28.4001 12.246 28.6685 12.5277 28.8696 13.0508C29.0306 13.4667 29.111 13.8826 29.111 14.2716C29.111 14.6204 29.0842 14.9558 29.0172 15.2643ZM22.3098 11.5484C21.8269 10.7033 21.1025 10.1936 20.1635 9.99229C19.9087 9.93866 19.6672 9.91185 19.439 9.91185C18.1513 9.91185 17.1049 10.5826 16.2866 11.9241C15.5891 13.0643 15.2403 14.3252 15.2403 15.707C15.2403 16.7399 15.4549 17.6252 15.8842 18.3631C16.3671 19.2082 17.0781 19.7179 18.0305 19.9191C18.2855 19.9729 18.5268 19.9997 18.7549 19.9997C20.0561 19.9997 21.1025 19.329 21.9073 17.9874C22.605 16.8337 22.9537 15.5728 22.9537 14.1912C22.9537 13.1448 22.739 12.2728 22.3098 11.5484ZM20.6062 15.2643C20.4183 16.1496 20.0829 16.8069 19.5866 17.2496C19.1976 17.5984 18.8354 17.7459 18.5 17.6788C18.1781 17.6118 17.9098 17.3301 17.7085 16.8069C17.5476 16.3911 17.4672 15.9752 17.4672 15.5862C17.4672 15.2509 17.494 14.9155 17.561 14.607C17.6818 14.057 17.9098 13.5203 18.2721 13.0106C18.7147 12.3532 19.1842 12.0851 19.6671 12.1789C19.9891 12.246 20.2575 12.5277 20.4586 13.0508C20.6197 13.4667 20.7 13.8826 20.7 14.2716C20.7135 14.6204 20.6732 14.9558 20.6062 15.2643Z" fill="#202832"/>
</svg>
